
            <svg width="554" height="48" viewBox="0 0 2956 256" fill="none" xmlns="http://www.w3.org/2000/svg" xmlns:xlink="http://www.w3.org/1999/xlink" version="1.1">
        
		<g transform="translate(0, 0)">
            
			<svg xmlns="http://www.w3.org/2000/svg" width="256" height="256" fill="none" viewBox="0 0 256 256" id="spring">
<style>
#spring {
    rect {fill: #242938}

    @media (prefers-color-scheme: light) {
        rect {fill: #F4F2ED}
    }
}
</style>
<rect width="256" height="256" fill="#242938" rx="60"/>
<path fill="#5FB832" d="M209.545 171.821C184.93 204.618 132.347 193.547 98.6353 195.139C98.6353 195.139 92.6673 195.471 86.6563 196.461C86.6563 196.461 88.9292 195.491 91.8279 194.492C115.506 186.304 126.695 184.659 141.082 177.269C168.114 163.421 195.018 133.259 200.492 101.925C190.202 132.061 158.909 157.998 130.415 168.53C110.911 175.727 75.6419 182.731 75.6368 182.734C75.6533 182.759 74.2312 181.996 74.2113 181.979C50.2253 170.309 49.5332 118.359 93.0965 101.613C112.197 94.2661 130.466 98.3015 151.114 93.387C173.136 88.151 198.642 71.644 209.009 50.063C220.631 84.5351 234.592 138.467 209.545 171.821V171.821ZM209.973 39.3809C207.043 46.343 203.466 52.6167 199.344 58.2281C181.197 39.6038 155.868 27.9999 127.871 27.9999C72.7989 27.9999 28 72.8039 28 127.866C28 156.731 40.3209 182.764 59.9644 201.012L62.1514 202.949C58.4993 199.971 57.9377 194.608 60.8977 190.952C63.8759 187.295 69.2444 186.728 72.8983 189.69C76.562 192.658 77.1202 198.035 74.1538 201.697C71.1984 205.361 65.8202 205.914 62.1614 202.958L63.6497 204.276C81.0254 218.906 103.424 227.743 127.871 227.743C180.511 227.743 223.736 186.778 227.436 135.073C230.176 109.757 222.699 77.6106 209.973 39.3809Z"/>
</svg>

		</g>
		
		<g transform="translate(300, 0)">
            
			<svg xmlns="http://www.w3.org/2000/svg" width="256" height="256" fill="none" viewBox="0 0 256 256" id="react">
<style>
#react {
    rect {fill: #242938}

    @media (prefers-color-scheme: light) {
        rect {fill: #F4F2ED}
    }
}
</style>
<rect width="256" height="256" fill="#242938" rx="60"/>
<path fill="#00D8FF" d="M128.001 146.951C138.305 146.951 146.657 138.598 146.657 128.295C146.657 117.992 138.305 109.639 128.001 109.639C117.698 109.639 109.345 117.992 109.345 128.295C109.345 138.598 117.698 146.951 128.001 146.951Z"/>
<path fill-rule="evenodd" stroke="#00D8FF" stroke-width="8.911" d="M128.002 90.3633C153.05 90.3633 176.319 93.9575 193.864 99.9976C215.003 107.275 228 118.306 228 128.295C228 138.704 214.226 150.423 191.525 157.944C174.363 163.63 151.779 166.598 128.002 166.598C103.624 166.598 80.5389 163.812 63.1834 157.881C41.2255 150.376 28 138.506 28 128.295C28 118.387 40.4096 107.441 61.2515 100.175C78.8617 94.0353 102.705 90.3633 127.998 90.3633H128.002Z" clip-rule="evenodd"/>
<path fill-rule="evenodd" stroke="#00D8FF" stroke-width="8.911" d="M94.9811 109.438C107.495 87.7402 122.232 69.3783 136.23 57.1971C153.094 42.5206 169.144 36.7728 177.796 41.7623C186.813 46.9623 190.084 64.7496 185.259 88.1712C181.614 105.879 172.9 126.925 161.021 147.523C148.842 168.641 134.897 187.247 121.09 199.315C103.619 214.587 86.7284 220.114 77.8833 215.013C69.3003 210.067 66.0181 193.846 70.1356 172.161C73.6145 153.838 82.3451 131.349 94.977 109.438L94.9811 109.438Z" clip-rule="evenodd"/>
<path fill-rule="evenodd" stroke="#00D8FF" stroke-width="8.911" d="M95.0123 147.578C82.4633 125.904 73.9194 103.962 70.3531 85.7517C66.0602 63.8109 69.0954 47.0355 77.7401 42.0315C86.7485 36.8163 103.792 42.866 121.674 58.7437C135.194 70.7479 149.077 88.8052 160.99 109.383C173.204 130.481 182.358 151.856 185.919 169.844C190.425 192.608 186.778 210.001 177.941 215.116C169.367 220.08 153.676 214.825 136.945 200.427C122.809 188.263 107.685 169.468 95.0123 147.578Z" clip-rule="evenodd"/>
</svg>

		</g>
		
		<g transform="translate(600, 0)">
            
			<svg xmlns="http://www.w3.org/2000/svg" width="256" height="256" fill="none" viewBox="0 0 256 256" id="nextjs">
<style>
#nextjs {
    rect {fill: #242938}

    @media (prefers-color-scheme: light) {
        rect {fill: #F4F2ED}
        path {fill: #000}
    }
}
</style>
<rect width="256" height="256" fill="#242938" rx="60"/>
<path fill="#fff" d="M121.451 28.0537C121.021 28.0928 119.652 28.2297 118.42 28.3274C90.0137 30.8885 63.4057 46.216 46.5533 69.7742C37.1691 82.8729 31.1672 97.7312 28.8993 113.469C28.0978 118.963 28 120.586 28 128.034C28 135.483 28.0978 137.106 28.8993 142.599C34.3343 180.155 61.0596 211.71 97.306 223.401C103.797 225.493 110.639 226.92 118.42 227.78C121.451 228.112 134.549 228.112 137.58 227.78C151.011 226.294 162.389 222.971 173.611 217.242C175.331 216.363 175.664 216.128 175.429 215.933C175.273 215.815 167.941 205.981 159.144 194.095L143.152 172.492L123.112 142.834C112.086 126.529 103.015 113.195 102.936 113.195C102.858 113.176 102.78 126.353 102.741 142.443C102.682 170.615 102.663 171.749 102.311 172.413C101.803 173.371 101.412 173.762 100.59 174.193C99.9648 174.505 99.4174 174.564 96.4653 174.564H93.0831L92.1838 173.997C91.5973 173.626 91.1672 173.137 90.8739 172.57L90.4633 171.69L90.5024 132.492L90.5611 93.2737L91.1672 92.5112C91.48 92.1007 92.1447 91.5728 92.6139 91.3186C93.4154 90.9276 93.7283 90.8885 97.1105 90.8885C101.099 90.8885 101.763 91.0449 102.8 92.1789C103.093 92.4917 113.943 108.836 126.925 128.523C139.906 148.21 157.658 175.092 166.377 188.288L182.213 212.277L183.015 211.749C190.111 207.135 197.619 200.566 203.562 193.723C216.211 179.197 224.364 161.485 227.101 142.599C227.902 137.106 228 135.483 228 128.034C228 120.586 227.902 118.963 227.101 113.469C221.666 75.913 194.94 44.3587 158.694 32.6676C152.301 30.5953 145.498 29.1681 137.873 28.3079C135.996 28.1124 123.073 27.8973 121.451 28.0537ZM162.389 88.5425C163.327 89.0117 164.09 89.911 164.364 90.8494C164.52 91.3577 164.559 102.228 164.52 126.724L164.461 161.876L158.264 152.374L152.047 142.873V117.321C152.047 100.801 152.125 91.5141 152.242 91.0645C152.555 89.9697 153.239 89.1095 154.178 88.6011C154.979 88.1906 155.273 88.1515 158.342 88.1515C161.236 88.1515 161.744 88.1906 162.389 88.5425Z"/>
</svg>

		</g>
		
		<g transform="translate(900, 0)">
            
			<svg width="256" height="256" viewBox="0 0 256 256" fill="none" xmlns="http://www.w3.org/2000/svg" id="nuxtjs">
<style>
#nuxtjs {
    rect {fill: #242938}

    @media (prefers-color-scheme: light) {
        rect {fill: #F4F2ED}
    }
}
</style>
<rect width="256" height="256" rx="60" fill="#242938"/>
<path d="M138.787 189.333H207.559C209.743 189.334 211.889 188.764 213.781 187.681C215.673 186.599 217.243 185.042 218.335 183.166C219.427 181.291 220.001 179.164 220 176.999C219.999 174.834 219.423 172.708 218.329 170.834L172.144 91.5483C171.052 89.6736 169.482 88.1167 167.591 87.0343C165.699 85.952 163.554 85.382 161.37 85.382C159.186 85.382 157.041 85.952 155.149 87.0343C153.258 88.1167 151.688 89.6736 150.596 91.5483L138.787 111.835L115.697 72.1652C114.605 70.2908 113.034 68.7341 111.142 67.6518C109.25 66.5698 107.104 66 104.92 66C102.736 66 100.59 66.5698 98.6982 67.6518C96.8062 68.7341 95.2352 70.2908 94.1427 72.1652L36.6704 170.834C35.5771 172.708 35.001 174.834 35 176.999C34.9991 179.164 35.5733 181.291 36.665 183.166C37.7567 185.042 39.3274 186.599 41.2191 187.681C43.1107 188.764 45.2567 189.334 47.441 189.333H90.6106C107.715 189.333 120.329 181.887 129.008 167.36L150.08 131.191L161.367 111.835L195.24 169.977H150.08L138.787 189.333ZM89.9068 169.957L59.7799 169.95L104.94 92.4316L127.473 131.191L112.386 157.097C106.622 166.523 100.074 169.957 89.9068 169.957Z" fill="#00DC82"/>
</svg>

		</g>
		
		<g transform="translate(1200, 0)">
            
			<svg width="256" height="256" viewBox="0 0 256 256" fill="none" xmlns="http://www.w3.org/2000/svg" id="angular">
<style>
#angular {
    path.rect {fill: #242938}

    @media (prefers-color-scheme: light) {
        path.rect {fill: #F4F2ED}
    }
}
</style>
<path d="M196 0H60C26.8629 0 0 26.8629 0 60V196C0 229.137 26.8629 256 60 256H196C229.137 256 256 229.137 256 196V60C256 26.8629 229.137 0 196 0Z" fill="#242938" class="rect" />
<g clip-path="url(#clip0_372_6)">
<path d="M214.187 72.2799L207.987 164.347L148.653 43.6133L214.187 72.2666V72.2799ZM173.093 191.333L128.267 215.507L83.44 191.333L92.56 170.453H163.987L173.107 191.333H173.093ZM128.267 89.4399L151.76 143.4H104.76L128.253 89.4399H128.267ZM48.48 164.333L42.3334 72.2799L107.88 43.6133L48.4934 164.347L48.48 164.333Z" fill="url(#paint0_linear_372_6)"/>
<path d="M214.187 72.2799L207.987 164.347L148.653 43.6133L214.187 72.2666V72.2799ZM173.093 191.333L128.267 215.507L83.44 191.333L92.56 170.453H163.987L173.107 191.333H173.093ZM128.267 89.4399L151.76 143.4H104.76L128.253 89.4399H128.267ZM48.48 164.333L42.3334 72.2799L107.88 43.6133L48.4934 164.347L48.48 164.333Z" fill="url(#paint1_linear_372_6)"/>
</g>
<defs>
<linearGradient id="paint0_linear_372_6" x1="60.52" y1="153.211" x2="196.293" y2="88.857" gradientUnits="userSpaceOnUse">
<stop stop-color="#E40035"/>
<stop offset="0.24" stop-color="#F60A48"/>
<stop offset="0.35" stop-color="#F20755"/>
<stop offset="0.49" stop-color="#DC087D"/>
<stop offset="0.74" stop-color="#9717E7"/>
<stop offset="1" stop-color="#6C00F5"/>
</linearGradient>
<linearGradient id="paint1_linear_372_6" x1="78.684" y1="55.0202" x2="166.359" y2="155.725" gradientUnits="userSpaceOnUse">
<stop stop-color="#FF31D9"/>
<stop offset="1" stop-color="#FF5BE1" stop-opacity="0"/>
</linearGradient>
<clipPath id="clip0_372_6">
<rect width="200" height="200" fill="white" transform="translate(28 28)"/>
</clipPath>
</defs>
</svg>

		</g>
		
		<g transform="translate(1500, 0)">
            
			<svg width="256" height="256" viewBox="0 0 256 256" fill="none" xmlns="http://www.w3.org/2000/svg" id="solidjs">
<style>
#solidjs {
    rect {fill: #242938}

    @media (prefers-color-scheme: light) {
        rect {fill: #F4F2ED}
    }
}
</style>
<rect width="256" height="256" rx="60" fill="#242938"/>
<path d="M224 76.8547C224 76.8547 160 29.7603 110.491 40.6283L106.868 41.8358C99.6226 44.2509 93.5849 47.8735 89.9623 52.7037L87.5472 56.3264L69.434 87.7226L100.83 93.7603C114.113 102.213 131.019 105.836 146.717 102.213L202.264 113.081L224 76.8547Z" fill="#76B3E1"/>
<path opacity="0.3" d="M224 76.8547C224 76.8547 160 29.7603 110.491 40.6283L106.868 41.8358C99.6226 44.2509 93.5849 47.8735 89.9623 52.7037L87.5472 56.3264L69.434 87.7226L100.83 93.7603C114.113 102.213 131.019 105.836 146.717 102.213L202.264 113.081L224 76.8547Z" fill="url(#paint0_linear_702_321)"/>
<path d="M89.9623 76.8543L85.1321 78.0619C64.6038 84.0996 58.566 103.42 69.434 120.326C81.5094 136.024 106.868 144.477 127.396 138.439L202.264 113.081C202.264 113.081 138.264 65.9864 89.9623 76.8543Z" fill="#518AC8"/>
<path opacity="0.3" d="M89.9623 76.8543L85.1321 78.0619C64.6038 84.0996 58.566 103.42 69.434 120.326C81.5094 136.024 106.868 144.477 127.396 138.439L202.264 113.081C202.264 113.081 138.264 65.9864 89.9623 76.8543Z" fill="url(#paint1_linear_702_321)"/>
<path d="M188.981 131.194C182.22 122.748 173.093 116.512 162.766 113.285C152.44 110.058 141.386 109.987 131.019 113.081L56.1509 137.232L32 179.496L167.245 202.439L191.396 158.968C196.226 150.515 195.019 140.854 188.981 131.194Z" fill="url(#paint2_linear_702_321)"/>
<path d="M164.83 173.458C158.07 165.012 148.942 158.776 138.615 155.549C128.289 152.322 117.235 152.251 106.868 155.345L32 179.496C32 179.496 96 227.798 145.509 215.722L149.132 214.515C169.66 208.477 176.906 189.156 164.83 173.458Z" fill="url(#paint3_linear_702_321)"/>
<defs>
<linearGradient id="paint0_linear_702_321" x1="60.3774" y1="38.2132" x2="210.717" y2="111.27" gradientUnits="userSpaceOnUse">
<stop offset="0.1" stop-color="#76B3E1"/>
<stop offset="0.3" stop-color="#DCF2FD"/>
<stop offset="1" stop-color="#76B3E1"/>
</linearGradient>
<linearGradient id="paint1_linear_702_321" x1="142.853" y1="73.9562" x2="116.528" y2="161.624" gradientUnits="userSpaceOnUse">
<stop stop-color="#76B3E1"/>
<stop offset="0.5" stop-color="#4377BB"/>
<stop offset="1" stop-color="#1F3B77"/>
</linearGradient>
<linearGradient id="paint2_linear_702_321" x1="49.3887" y1="112.115" x2="201.419" y2="215.481" gradientUnits="userSpaceOnUse">
<stop stop-color="#315AA9"/>
<stop offset="0.5" stop-color="#518AC8"/>
<stop offset="1" stop-color="#315AA9"/>
</linearGradient>
<linearGradient id="paint3_linear_702_321" x1="117.977" y1="124.552" x2="56.6339" y2="349.519" gradientUnits="userSpaceOnUse">
<stop stop-color="#4377BB"/>
<stop offset="0.5" stop-color="#1A336B"/>
<stop offset="1" stop-color="#1A336B"/>
</linearGradient>
</defs>
</svg>

		</g>
		
		<g transform="translate(1800, 0)">
            
			<svg width="256" height="256" viewBox="0 0 256 256" fill="none" xmlns="http://www.w3.org/2000/svg">
<rect width="256" height="256" rx="60" fill="url(#paint0_linear_206_664)"/>
<path fill-rule="evenodd" clip-rule="evenodd" d="M157.719 33.0112C159.353 35.039 160.185 37.7762 161.851 43.2479L198.247 162.809C184.576 155.715 169.903 150.747 154.734 148.077L131.037 67.9971C130.848 67.3583 130.457 66.7977 129.923 66.3993C129.389 66.0009 128.741 65.7861 128.075 65.787C127.408 65.788 126.76 66.0046 126.228 66.4045C125.695 66.8044 125.306 67.3661 125.119 68.0055L101.708 148.037C86.4709 150.694 71.7306 155.67 58 162.791L94.5734 43.221C96.2458 37.7568 97.0803 35.0256 98.714 33.002C100.156 31.2146 102.032 29.8264 104.163 28.9698C106.577 28 109.433 28 115.147 28H141.27C146.991 28 149.851 28 152.267 28.9723C154.4 29.8306 156.277 31.2212 157.719 33.0112Z" fill="#31274A"/>
<path fill-rule="evenodd" clip-rule="evenodd" d="M162.074 168.499C156.074 173.63 144.098 177.128 130.304 177.128C113.373 177.128 99.1821 171.857 95.4172 164.769C94.0709 168.832 93.7692 173.481 93.7692 176.452C93.7692 176.452 92.8817 191.037 103.026 201.181C103.026 195.913 107.296 191.643 112.564 191.643C121.592 191.643 121.582 199.52 121.573 205.911V206.481C121.573 216.181 127.501 224.496 135.932 228C134.634 225.329 133.962 222.398 133.966 219.428C133.966 210.177 139.398 206.732 145.71 202.73C150.732 199.545 156.312 196.006 160.158 188.906C162.229 185.082 163.31 180.801 163.303 176.452C163.303 173.679 162.872 171.007 162.074 168.499Z" fill="#FF5D01"/>
<path fill-rule="evenodd" clip-rule="evenodd" d="M162.074 168.499C156.074 173.63 144.098 177.128 130.304 177.128C113.373 177.128 99.1821 171.857 95.4172 164.769C94.0709 168.832 93.7692 173.481 93.7692 176.452C93.7692 176.452 92.8817 191.037 103.026 201.181C103.026 195.913 107.296 191.643 112.564 191.643C121.592 191.643 121.582 199.52 121.573 205.911V206.481C121.573 216.181 127.501 224.496 135.932 228C134.634 225.329 133.962 222.398 133.966 219.428C133.966 210.177 139.398 206.732 145.71 202.73C150.732 199.545 156.312 196.006 160.158 188.906C162.229 185.082 163.31 180.801 163.303 176.452C163.303 173.679 162.872 171.007 162.074 168.499Z" fill="url(#paint1_linear_206_664)"/>
<defs>
<linearGradient id="paint0_linear_206_664" x1="128" y1="0" x2="128" y2="256" gradientUnits="userSpaceOnUse">
<stop offset="0.192708" stop-color="#FCB3B2"/>
<stop offset="1" stop-color="#C587EE"/>
</linearGradient>
<linearGradient id="paint1_linear_206_664" x1="189.089" y1="126.765" x2="153.565" y2="201.132" gradientUnits="userSpaceOnUse">
<stop stop-color="#FF1639"/>
<stop offset="1" stop-color="#FF1639" stop-opacity="0"/>
</linearGradient>
</defs>
</svg>

		</g>
		
		<g transform="translate(2100, 0)">
            
			<svg width="256" height="256" viewBox="0 0 256 256" fill="none" xmlns="http://www.w3.org/2000/svg" id="threejs">
<style>
#threejs {
    rect {fill: #242938}

    @media (prefers-color-scheme: light) {
        rect {fill: #F4F2ED}
        path {stroke: #000}
    }
}
</style>
<rect width="256" height="256" rx="60" fill="#242938"/>
<path fill-rule="evenodd" clip-rule="evenodd" d="M93.213 222.94L50 48L223.23 97.874L93.213 222.94Z" stroke="white" stroke-width="4" stroke-miterlimit="10" stroke-linejoin="round"/>
<path fill-rule="evenodd" clip-rule="evenodd" d="M136.583 72.9419L158.174 160.438L71.6071 135.493L136.583 72.9419Z" stroke="white" stroke-width="4" stroke-miterlimit="10" stroke-linejoin="round"/>
<path fill-rule="evenodd" clip-rule="evenodd" d="M115.103 147.36L104.379 103.895L147.387 116.241L115.103 147.36Z" stroke="white" stroke-width="4" stroke-miterlimit="10" stroke-linejoin="round"/>
<path fill-rule="evenodd" clip-rule="evenodd" d="M93.6509 60.4829L104.375 103.948L61.3669 91.6019L93.6509 60.4829Z" stroke="white" stroke-width="4" stroke-miterlimit="10" stroke-linejoin="round"/>
<path fill-rule="evenodd" clip-rule="evenodd" d="M179.663 85.2598L190.387 128.725L147.379 116.379L179.663 85.2598Z" stroke="white" stroke-width="4" stroke-miterlimit="10" stroke-linejoin="round"/>
<path fill-rule="evenodd" clip-rule="evenodd" d="M115.108 147.39L125.832 190.855L82.824 178.509L115.108 147.39Z" stroke="white" stroke-width="4" stroke-miterlimit="10" stroke-linejoin="round"/>
</svg>

		</g>
		
		<g transform="translate(2400, 0)">
            
			<svg xmlns="http://www.w3.org/2000/svg" width="256" height="256" fill="none" viewBox="0 0 256 256" id="tailwindcss">
<style>
#tailwindcss {
    rect {fill: #242938}

    @media (prefers-color-scheme: light) {
        rect {fill: #F4F2ED}
    }
}
</style>
<rect width="256" height="256" fill="#242938" rx="60"/>
<path fill="url(#paint0_linear_2_119)" fill-rule="evenodd" d="M83 110C88.9991 86.0009 104.001 74 128 74C164 74 168.5 101 186.5 105.5C198.501 108.501 209 104.001 218 92C212.001 115.999 196.999 128 173 128C137 128 132.5 101 114.5 96.5C102.499 93.4991 92 97.9991 83 110ZM38 164C43.9991 140.001 59.0009 128 83 128C119 128 123.5 155 141.5 159.5C153.501 162.501 164 158.001 173 146C167.001 169.999 151.999 182 128 182C92 182 87.5 155 69.5 150.5C57.4991 147.499 47 151.999 38 164Z" clip-rule="evenodd"/>
<defs>
<linearGradient id="paint0_linear_2_119" x1="86.5" x2="163.5" y1="74" y2="185.5" gradientUnits="userSpaceOnUse">
<stop stop-color="#32B1C1"/>
<stop offset="1" stop-color="#14C6B7"/>
</linearGradient>
</defs>
</svg>

		</g>
		
		<g transform="translate(2700, 0)">
            
			<svg width="256" height="256" viewBox="0 0 256 256" fill="none" xmlns="http://www.w3.org/2000/svg" id="vite">
<style>
#vite {
    rect {fill: #242938}

    @media (prefers-color-scheme: light) {
        rect {fill: #F4F2ED}
    }
}
</style>
<rect width="256" height="256" rx="60" fill="#242938"/>
<path d="M227.088 57.6016L133.256 225.389C131.318 228.854 126.341 228.874 124.375 225.427L28.6823 57.6177C26.54 53.861 29.7524 49.3105 34.0096 50.0715L127.942 66.8613C128.541 66.9684 129.155 66.9674 129.754 66.8582L221.722 50.0955C225.965 49.3222 229.192 53.8374 227.088 57.6016Z" fill="url(#paint0_linear_307_179)"/>
<path d="M172.687 28.0492L103.249 41.6554C102.107 41.879 101.262 42.8462 101.194 44.007L96.9221 116.148C96.8216 117.847 98.3821 119.166 100.04 118.783L119.373 114.322C121.182 113.905 122.816 115.498 122.445 117.317L116.701 145.443C116.314 147.336 118.092 148.954 119.94 148.393L131.881 144.765C133.732 144.203 135.511 145.826 135.119 147.721L125.991 191.9C125.42 194.664 129.096 196.171 130.629 193.801L131.653 192.219L188.235 79.2992C189.183 77.4085 187.549 75.2526 185.472 75.6534L165.573 79.494C163.703 79.8545 162.112 78.113 162.639 76.2834L175.628 31.2582C176.156 29.4255 174.559 27.6825 172.687 28.0492Z" fill="url(#paint1_linear_307_179)"/>
<defs>
<linearGradient id="paint0_linear_307_179" x1="26.3459" y1="44.075" x2="143.127" y2="202.673" gradientUnits="userSpaceOnUse">
<stop stop-color="#41D1FF"/>
<stop offset="1" stop-color="#BD34FE"/>
</linearGradient>
<linearGradient id="paint1_linear_307_179" x1="122.551" y1="31.7433" x2="143.676" y2="176.66" gradientUnits="userSpaceOnUse">
<stop stop-color="#FFEA83"/>
<stop offset="0.0833333" stop-color="#FFDD35"/>
<stop offset="1" stop-color="#FFA800"/>
</linearGradient>
</defs>
</svg>

		</g>
		</svg>