
            <svg width="554" height="48" viewBox="0 0 2956 256" fill="none" xmlns="http://www.w3.org/2000/svg" xmlns:xlink="http://www.w3.org/1999/xlink" version="1.1">
        
		<g transform="translate(0, 0)">
            
			<svg xmlns="http://www.w3.org/2000/svg" width="256" height="256" fill="none" viewBox="0 0 256 256" id="postgresql">
<style>
#postgresql {
    rect {fill: #242938}

    @media (prefers-color-scheme: light) {
        rect {fill: #F4F2ED}
    }
}
</style>
<rect width="256" height="256" fill="#242938" rx="60"/>
<path fill="#336791" d="M203.48 148.688C183.16 152.878 181.684 145.995 181.684 145.995C203.15 114.143 212.129 73.7134 204.38 63.8204C183.259 36.8204 146.689 49.5962 146.077 49.9266L145.88 49.9618C141.414 49.0656 136.873 48.5924 132.317 48.5485C123.12 48.4079 116.145 50.9602 110.844 54.9751C110.844 54.9751 45.6078 28.1016 48.6453 88.7743C49.2922 101.684 67.1375 186.509 88.4422 160.845C96.2891 151.409 103.812 143.484 103.812 143.484C107.539 145.966 112.018 147.232 116.708 146.775L117.073 146.466C116.966 147.681 117.016 148.905 117.221 150.108C111.737 156.239 113.354 157.315 102.385 159.572C91.2898 161.857 97.8148 165.928 102.062 166.997C107.223 168.291 119.162 170.119 127.234 158.827L126.91 160.113C129.062 161.836 130.566 171.314 130.313 179.906C130.06 188.499 129.891 194.391 131.579 199.003C133.266 203.616 134.954 213.98 149.368 210.956C161.413 208.376 167.649 201.675 168.528 190.524C169.147 182.592 170.539 183.759 170.638 176.672L171.763 173.311C173.049 162.553 171.973 159.087 179.391 160.704L181.198 160.866C186.662 161.112 193.813 159.987 198.003 158.039C207.038 153.849 212.396 146.845 203.487 148.688H203.48Z"/>
<path stroke="#fff" stroke-linecap="round" stroke-linejoin="round" stroke-width="5.034" d="M146.07 48.5961C143.82 49.2993 182.38 34.4985 204.303 62.504C212.038 72.3969 203.073 112.827 181.606 144.678M128.098 153.784C127.536 173.795 128.239 193.946 130.194 198.784C132.148 203.621 136.346 213.198 150.767 210.118C162.812 207.538 167.199 202.538 169.098 191.506L173.548 156.231L128.098 153.784ZM110.816 53.4688C110.816 53.4688 45.5375 26.7782 48.575 87.4508C49.2219 100.36 67.0672 185.185 88.3719 159.521C96.1484 150.148 103.18 142.815 103.18 142.815L110.816 53.4688Z"/>
<path stroke="#fff" stroke-linecap="round" stroke-linejoin="bevel" stroke-width="5.034" d="M181.613 144.664C181.613 144.664 183.02 151.555 203.41 147.35C212.319 145.508 206.954 152.511 197.926 156.702C190.515 160.147 173.893 161.026 173.619 156.28C172.916 144.01 182.366 147.737 181.684 144.664C181.065 141.894 176.832 139.18 174.048 132.402C171.608 126.495 140.579 81.1438 182.654 87.8727C184.201 87.5563 171.685 47.7946 132.31 47.2181C92.9352 46.6415 94.1797 95.6282 94.1797 95.6282"/>
<path stroke="#fff" stroke-linejoin="round" stroke-width="5.034" d="M117.08 148.869C111.596 155 113.213 156.076 102.245 158.333C91.1492 160.618 97.6742 164.689 101.921 165.758C107.082 167.052 119.021 168.88 127.093 157.58C129.554 154.135 127.079 148.651 123.704 147.259C122.073 146.584 119.893 145.74 117.095 148.876L117.08 148.869Z"/>
<path stroke="#fff" stroke-linecap="round" stroke-linejoin="round" stroke-width="5.034" d="M116.722 148.763C116.159 145.156 117.903 140.874 119.766 135.854C122.565 128.331 129.02 120.807 123.859 96.9219C120.013 79.1329 94.1867 93.2165 94.1867 95.6282C94.1867 98.0399 95.3539 107.863 93.7648 119.288C91.6766 134.209 103.257 146.823 116.588 145.536"/>
<path fill="#fff" stroke="#fff" stroke-width="1.68" d="M110.577 95.2695C110.457 96.0922 112.088 98.293 114.205 98.5883C116.321 98.8836 118.128 97.168 118.248 96.3383C118.367 95.5086 116.736 94.6086 114.62 94.3133C112.503 94.018 110.682 94.4539 110.577 95.2695V95.2695Z"/>
<path fill="#fff" stroke="#fff" stroke-width=".837" d="M175.011 93.5891C175.123 94.4118 173.499 96.6125 171.383 96.9079C169.266 97.2032 167.445 95.4875 167.34 94.6579C167.234 93.8282 168.852 92.9282 170.968 92.6329C173.084 92.3375 174.905 92.7735 175.011 93.5891Z"/>
<path stroke="#fff" stroke-linecap="round" stroke-linejoin="round" stroke-width="5.034" d="M182.577 87.8867C182.928 94.3555 181.184 98.75 180.959 105.634C180.636 115.632 185.727 127.079 178.055 138.54"/>
</svg>

		</g>
		
		<g transform="translate(300, 0)">
            
			<svg xmlns="http://www.w3.org/2000/svg" width="256" height="256" fill="none" viewBox="0 0 256 256" id="mysql">
<style>
#mysql {
    rect {fill: #242938}

    @media (prefers-color-scheme: light) {
        rect {fill: #F4F2ED}
        path {fill: #00678C}
    }
}
</style>
<rect width="256" height="256" fill="#242938" rx="60"/>
<g clip-path="url(#clip0_7_147)">
<path fill="#fff" fill-rule="evenodd" d="M203.801 178.21C194.011 177.938 186.416 178.941 180.051 181.619C178.218 182.355 175.277 182.355 175.035 184.662C176.015 185.63 176.133 187.214 176.992 188.556C178.459 190.991 181.033 194.271 183.357 195.973L191.191 201.571C195.965 204.488 201.351 206.193 206.002 209.113C208.696 210.817 211.388 213.007 214.082 214.834C215.454 215.807 216.285 217.392 218 217.997V217.629C217.144 216.538 216.897 214.957 216.044 213.735L212.367 210.209C208.82 205.465 204.41 201.325 199.636 197.922C195.718 195.245 187.152 191.596 185.56 187.097L185.319 186.824C188.008 186.552 191.191 185.605 193.764 184.875C197.929 183.784 201.721 184.024 206.002 182.93L211.882 181.226V180.135C209.678 177.946 208.087 175.025 205.763 172.959C199.521 167.606 192.661 162.373 185.56 157.994C181.766 155.562 176.868 153.977 172.829 151.913C171.356 151.182 168.911 150.817 168.055 149.601C165.846 146.929 164.625 143.397 163.034 140.232L152.997 119.064C150.794 114.319 149.444 109.574 146.755 105.195C134.144 84.5124 120.431 71.9828 99.375 59.6932C94.8477 57.1382 89.4616 56.0393 83.7353 54.7032L74.5546 54.2124C72.5928 53.3616 70.6364 51.0493 68.9216 49.9531C61.9441 45.5739 43.9475 36.0847 38.8029 48.5897C35.4966 56.4974 43.7006 64.2824 46.4855 68.299C48.5708 71.0966 51.2597 74.2597 52.7332 77.4228C53.5563 79.4897 53.8307 81.682 54.6895 83.8717C56.6458 89.2243 58.4842 95.1878 61.0551 100.178C62.427 102.733 63.8675 105.413 65.5824 107.723C66.5619 109.086 68.2768 109.67 68.6417 111.859C66.9268 114.294 66.8089 117.94 65.8293 120.986C61.42 134.734 63.1349 151.766 69.377 161.888C71.3389 164.928 75.9622 171.622 82.2345 169.065C87.744 166.875 86.5148 159.941 88.1062 153.857C88.4766 152.399 88.2297 151.425 88.9623 150.449V150.722L93.9834 160.819C97.7781 166.78 104.391 172.986 109.897 177.125C112.833 179.315 115.16 183.089 118.831 184.425V184.057H118.59C117.854 182.966 116.751 182.475 115.772 181.624C113.569 179.435 111.121 176.757 109.406 174.325C104.267 167.513 99.7399 159.968 95.6983 152.183C93.7365 148.412 92.0216 144.275 90.4357 140.504C89.6949 139.043 89.6949 136.85 88.4739 136.125C86.6355 138.797 83.9466 141.115 82.5939 144.398C80.2672 149.628 80.0257 156.077 79.1697 162.769C78.6758 162.891 78.8953 162.769 78.6758 163.041C74.7631 162.071 73.4132 158.051 71.9453 154.648C68.274 146.01 67.6594 132.141 70.8422 122.164C71.6983 119.609 75.375 111.579 73.9071 109.146C73.1662 106.834 70.7242 105.498 69.3743 103.671C67.7829 101.359 66.0735 98.4409 64.9705 95.8859C62.0346 89.0689 60.5667 81.5293 57.3812 74.7151C55.9077 71.552 53.3396 68.2662 51.257 65.3486C48.9303 62.0628 46.3648 59.7505 44.5265 55.8593C43.9146 54.4959 43.0585 52.3309 44.0381 50.8693C44.2795 49.8959 44.7734 49.5059 45.7475 49.2878C47.3389 47.9244 51.8716 49.6532 53.463 50.3785C57.9903 52.2054 61.7849 53.907 65.5796 56.4592C67.2945 57.6754 69.1329 59.9877 71.3361 60.5985H73.9098C77.8279 61.4493 82.2317 60.8712 85.9002 61.9619C92.3893 64.0343 98.2637 67.0719 103.532 70.3604C119.567 80.4577 132.792 94.8143 141.725 111.971C143.193 114.769 143.805 117.324 145.155 120.244C147.729 126.208 150.912 132.289 153.477 138.132C156.051 143.85 158.498 149.694 162.17 154.438C164.008 156.993 171.35 158.329 174.654 159.668C177.104 160.759 180.896 161.741 183.105 163.077C187.264 165.632 191.427 168.552 195.342 171.35C197.298 172.806 203.423 175.849 203.787 178.276L203.801 178.21ZM78.9584 72.4873C77.267 72.4724 75.5809 72.6769 73.9427 73.0954V73.3681H74.1842C75.1637 75.315 76.8786 76.6538 78.1023 78.3581L80.9202 84.1989L81.1616 83.9262C82.8765 82.71 83.7353 80.7631 83.7353 77.8454C83 76.9947 82.8793 76.1412 82.2674 75.2904C81.5321 74.0743 79.9407 73.4635 78.9584 72.4928V72.4873Z" clip-rule="evenodd"/>
</g>
<defs>
<clipPath id="clip0_7_147">
<rect width="180" height="180" fill="#fff" transform="translate(38 38)"/>
</clipPath>
</defs>
</svg>

		</g>
		
		<g transform="translate(600, 0)">
            
			<svg xmlns="http://www.w3.org/2000/svg" width="256" height="256" fill="none" viewBox="0 0 256 256">
<rect width="256" height="256" fill="#023430" rx="60"/>
<path fill="#10AA50" d="M171.173 107.591C160.636 61.1097 138.676 48.7357 133.074 39.9886C130.764 36.1353 128.717 32.1299 126.949 28C126.653 32.1292 126.109 34.7307 122.599 37.862C115.552 44.1454 85.6217 68.5354 83.1028 121.348C80.756 170.59 119.303 200.953 124.395 204.092C128.311 206.019 133.08 204.133 135.407 202.364C153.988 189.612 179.376 155.614 171.193 107.591"/>
<path fill="#B8C4C2" d="M128.545 177.871C127.575 190.059 126.88 197.141 124.416 204.106C124.416 204.106 126.033 215.709 127.169 228H131.188C132.147 219.345 133.61 210.753 135.572 202.268C130.369 199.708 128.745 188.566 128.545 177.871Z"/>
<path fill="#12924F" d="M135.565 202.275C130.307 199.846 128.786 188.469 128.552 177.871C129.852 160.388 130.231 142.849 129.688 125.326C129.412 116.132 129.818 40.1676 127.423 29.0461C129.062 32.8129 130.949 36.4662 133.074 39.9818C138.676 48.7358 160.643 61.1097 171.173 107.591C179.376 155.532 154.126 189.44 135.565 202.275Z"/>
</svg>

		</g>
		
		<g transform="translate(900, 0)">
            
			<svg xmlns="http://www.w3.org/2000/svg" width="256" height="256" fill="none" viewBox="0 0 256 256" id="redis">
<style>
#redis {
    rect {fill: #242938}

    @media (prefers-color-scheme: light) {
        rect {fill: #F4F2ED}
    }
}
</style>
<rect width="256" height="256" fill="#242938" rx="60"/>
<g clip-path="url(#clip0_7_218)">
<path fill="#A41E11" d="M220.161 174.468C209.488 180.035 154.204 202.765 142.434 208.899C130.663 215.034 124.126 214.976 114.826 210.532C105.526 206.089 46.6945 182.326 36.0904 177.257C30.7884 174.722 28.0101 172.591 28.0101 170.576V150.36C28.0101 150.36 104.609 133.685 116.978 129.247C129.348 124.809 133.627 124.65 144.157 128.505C154.687 132.359 217.606 143.711 228.003 147.523V167.459C228.003 169.458 225.607 171.7 220.172 174.479L220.161 174.468Z"/>
<path fill="#D82C20" d="M220.162 154.246C209.488 159.813 154.204 182.543 142.434 188.677C130.663 194.812 124.126 194.753 114.826 190.31C105.526 185.867 46.6946 162.103 36.0905 157.035C25.4864 151.966 25.2743 148.483 35.6822 144.405L116.973 112.932C129.338 108.5 133.622 108.335 144.151 112.19C154.681 116.045 209.632 137.916 220.024 141.786C230.416 145.657 230.824 148.732 220.151 154.299L220.162 154.246Z"/>
<path fill="#A41E11" d="M220.161 141.5C209.488 147.067 154.204 169.797 142.434 175.931C130.663 182.066 124.126 182.007 114.826 177.564C105.526 173.121 46.6945 149.357 36.0904 144.289C30.7884 141.754 28.0101 139.623 28.0101 137.608V117.391C28.0101 117.391 104.609 100.716 116.978 96.2787C129.348 91.8409 133.627 91.6818 144.157 95.5364C154.687 99.391 217.606 110.743 228.003 114.555V134.491C228.003 136.489 225.607 138.732 220.172 141.51L220.161 141.5Z"/>
<path fill="#D82C20" d="M220.162 121.283C209.488 126.85 154.204 149.58 142.434 155.715C130.663 161.849 124.126 161.791 114.826 157.348C105.526 152.904 46.6946 129.141 36.0905 124.072C25.4864 119.003 25.2743 115.52 35.6822 111.442L116.973 79.9748C129.338 75.537 133.622 75.378 144.151 79.2326C154.681 83.0871 209.632 104.963 220.034 108.765C230.437 112.567 230.835 115.711 220.162 121.278V121.283Z"/>
<path fill="#A41E11" d="M220.161 107.312C209.488 112.879 154.204 135.609 142.434 141.749C130.663 147.889 124.126 147.825 114.826 143.382C105.526 138.939 46.6945 115.175 36.0904 110.106C30.7884 107.572 28.0101 105.441 28.0101 103.426V83.1985C28.0101 83.1985 104.609 66.5236 116.978 62.0858C129.348 57.648 133.627 57.4889 144.157 61.3435C154.687 65.1981 217.606 76.5498 228.003 80.3619V100.298C228.003 102.297 225.607 104.539 220.172 107.318L220.161 107.312Z"/>
<path fill="#D82C20" d="M220.162 87.0902C209.488 92.6573 154.204 115.387 142.434 121.522C130.663 127.656 124.126 127.598 114.826 123.155C105.526 118.712 46.6946 94.9478 36.0905 89.8791C25.4864 84.8103 25.2743 81.3269 35.6822 77.2496L116.973 45.782C129.338 41.3442 133.622 41.1851 144.151 45.0397C154.681 48.8943 209.632 70.7705 220.034 74.5721C230.437 78.3736 230.835 81.5177 220.162 87.0849V87.0902Z"/>
<path fill="#fff" d="M132.996 78.7554L126.729 68.3369L106.719 66.5342L121.65 61.1473L117.169 52.8761L131.146 58.3372L144.326 54.0213L140.763 62.5682L154.199 67.6052L136.872 69.4079L132.996 78.7554ZM99.6143 99.497L145.954 92.3816L131.957 112.911L99.6143 99.497Z"/>
<path fill="#fff" d="M87.1226 92.0158C100.803 92.0158 111.894 87.7168 111.894 82.4138C111.894 77.1107 100.803 72.8118 87.1226 72.8118C73.4419 72.8118 62.3515 77.1107 62.3515 82.4138C62.3515 87.7168 73.4419 92.0158 87.1226 92.0158Z"/>
<path fill="#7A0C00" d="M202.113 81.0141L174.702 91.8408L174.681 70.1714L202.113 81.0141Z"/>
<path fill="#AD2115" d="M174.707 91.8408L171.738 93.0072L144.348 82.1805L174.691 70.1766L174.707 91.8408Z"/>
</g>
<defs>
<clipPath id="clip0_7_218">
<rect width="200" height="200" fill="#fff" transform="translate(28 28)"/>
</clipPath>
</defs>
</svg>

		</g>
		
		<g transform="translate(1200, 0)">
            
			<svg width="256" height="256" viewBox="0 0 256 256" fill="none" xmlns="http://www.w3.org/2000/svg" id="drizzle">
<style>
#drizzle {
    rect {fill: #242938}
    
    @media (prefers-color-scheme: light) {
        rect {fill: #F4F2ED}
    }
}
</style>
<rect width="256" height="256" rx="60" fill="#242938"/>
<path d="M74.3433 126.186C76.6712 122.123 75.2448 116.979 71.1573 114.696C67.0699 112.413 61.8692 113.855 59.5413 117.917L32.215 165.601C29.8871 169.663 31.3135 174.807 35.4009 177.091C39.4884 179.374 44.6891 177.932 47.017 173.87L74.3433 126.186Z" fill="#C5F74F"/>
<path d="M133.244 89.6236C135.572 85.5614 134.145 80.4174 130.058 78.1342C125.97 75.8509 120.77 77.2931 118.442 81.3552L91.1154 129.039C88.7875 133.101 90.2139 138.245 94.3013 140.529C98.3888 142.812 103.589 141.37 105.917 137.308L133.244 89.6236Z" fill="#C5F74F"/>
<path d="M223.874 89.625C226.202 85.5629 224.776 80.4189 220.688 78.1356C216.601 75.8524 211.4 77.2945 209.072 81.3567L181.746 129.041C179.418 133.103 180.844 138.247 184.932 140.53C189.019 142.813 194.22 141.371 196.548 137.309L223.874 89.625Z" fill="#C5F74F"/>
<path d="M164.955 126.186C167.283 122.123 165.857 116.979 161.769 114.696C157.682 112.413 152.481 113.855 150.153 117.917L122.827 165.601C120.499 169.663 121.925 174.807 126.013 177.091C130.1 179.374 135.301 177.932 137.629 173.87L164.955 126.186Z" fill="#C5F74F"/>
</svg>

		</g>
		
		<g transform="translate(1500, 0)">
            
			<svg width="256" height="256" viewBox="0 0 256 256" fill="none" xmlns="http://www.w3.org/2000/svg" id="bun">
<style>
#bun {
    rect {fill: #242938}

    @media (prefers-color-scheme: light) {
        rect {fill: #F4F2ED}
    }
}
</style>
<rect width="256" height="256" rx="60" fill="#242938"/>
<path d="M206.709 91.2411C206.304 90.8108 205.873 90.3804 205.443 89.9753C205.012 89.5703 204.607 89.1146 204.177 88.7095C203.747 88.3044 203.342 87.8487 202.911 87.4437C202.481 87.0386 202.076 86.5829 201.645 86.1778C201.215 85.7728 200.81 85.3171 200.38 84.912C199.949 84.507 199.544 84.0513 199.114 83.6462C198.683 83.2411 198.278 82.7854 197.848 82.3804C210.405 94.7214 217.599 111.51 217.873 129.115C217.873 171.064 175.291 205.191 122.936 205.191C93.6199 205.191 67.392 194.482 49.949 177.697L51.2148 178.963L52.4806 180.229L53.7464 181.494L55.0123 182.76L56.2781 184.026L57.5439 185.292L58.8097 186.558C76.2275 204.051 103.038 215.317 133.063 215.317C185.417 215.317 228 181.191 228 139.368C228 121.494 220.304 104.558 206.709 91.2411Z" fill="black"/>
<path d="M211.544 129.114C211.544 167.62 171.874 198.836 122.937 198.836C74 198.836 34.3291 167.62 34.3291 129.114C34.3291 105.241 49.519 84.1519 72.8608 71.6456C96.2026 59.1392 110.734 46.3291 122.937 46.3291C135.139 46.3291 145.57 56.7848 173.013 71.6456C196.355 84.1519 211.544 105.241 211.544 129.114Z" fill="#FBF0DF"/>
<path d="M211.544 129.114C211.532 124.167 210.851 119.245 209.519 114.481C202.608 198.785 99.7722 202.835 59.3418 177.62C77.5166 191.707 99.9446 199.189 122.937 198.835C171.798 198.835 211.544 167.57 211.544 129.114Z" fill="#F6DECE"/>
<path d="M88.8355 67.0127C100.152 60.2278 115.19 47.4937 129.975 47.4683C127.7 46.7332 125.327 46.349 122.937 46.3291C116.81 46.3291 110.279 49.4937 102.051 54.2532C99.1899 55.924 96.2279 57.7721 93.0887 59.6962C87.1899 63.3418 80.4304 67.4684 72.8355 71.5949C48.7342 84.6329 34.3291 106.127 34.3291 129.114C34.3291 130.127 34.3291 131.139 34.3291 132.127C49.6709 77.9241 77.5443 73.7975 88.8355 67.0127Z" fill="#FFFEFC"/>
<path fill-rule="evenodd" clip-rule="evenodd" d="M115.645 52.7341C115.681 58.7119 114.426 64.6269 111.966 70.0753C109.506 75.5236 105.899 80.3769 101.392 84.3038C100.683 84.9367 101.24 86.1519 102.152 85.7974C110.683 82.481 122.202 72.5569 117.342 52.5316C117.139 51.3924 115.645 51.6962 115.645 52.7341ZM121.392 52.7341C124.49 57.7884 126.458 63.4527 127.162 69.3388C127.865 75.2249 127.287 81.1935 125.468 86.8354C125.164 87.7215 126.253 88.481 126.861 87.7468C132.405 80.6582 137.24 66.5822 122.759 51.3924C122.025 50.7341 120.886 51.7468 121.392 52.6329V52.7341ZM128.38 52.3037C133.231 55.7381 137.289 60.1727 140.28 65.3086C143.272 70.4444 145.127 76.1621 145.721 82.0759C145.696 82.289 145.753 82.5038 145.882 82.6758C146.01 82.8477 146.2 82.9636 146.412 82.9994C146.623 83.0352 146.84 82.9882 147.018 82.8681C147.196 82.748 147.321 82.5641 147.367 82.3544C149.696 73.519 148.38 58.4556 129.215 50.6329C128.202 50.2278 127.544 51.5949 128.38 52.2025V52.3037ZM81.6454 78.6329C87.4157 76.909 92.7583 73.9891 97.3252 70.0634C101.892 66.1377 105.581 61.2941 108.152 55.8481C108.607 54.9367 110.051 55.2911 109.823 56.3037C105.443 76.5569 90.7847 80.7848 81.6708 80.2278C80.7087 80.2531 80.734 78.9114 81.6454 78.6329Z" fill="#CCBEA7"/>
<path d="M122.937 205.19C70.5823 205.19 28 171.063 28 129.114C28 103.798 43.6456 80.1773 69.8481 66.0253C77.4431 61.9747 83.9494 57.8988 89.7469 54.3291C92.9368 52.3544 95.9494 50.5063 98.8608 48.7848C107.747 43.519 115.342 40 122.937 40C130.532 40 137.165 43.038 145.468 47.9494C148 49.3924 150.532 50.962 153.241 52.6836C159.544 56.5823 166.658 60.9874 176.025 66.0253C202.228 80.1773 217.874 103.772 217.874 129.114C217.874 171.063 175.291 205.19 122.937 205.19ZM122.937 46.3291C116.81 46.3291 110.279 49.4937 102.051 54.2532C99.1899 55.9241 96.2279 57.7722 93.0887 59.6962C87.1899 63.3418 80.4304 67.4684 72.8355 71.595C48.7342 84.633 34.3291 106.127 34.3291 129.114C34.3291 167.57 74.076 198.861 122.937 198.861C171.798 198.861 211.544 167.57 211.544 129.114C211.544 106.127 197.139 84.633 173.013 71.6456C163.443 66.5823 155.975 61.8228 149.924 58.076C147.165 56.3798 144.633 54.8101 142.329 53.4177C134.658 48.8608 129.063 46.3291 122.937 46.3291Z" fill="black"/>
<path d="M140.785 147.596C139.648 152.254 137.059 156.429 133.393 159.52C130.64 162.188 127.077 163.863 123.266 164.279C119.341 163.929 115.652 162.25 112.81 159.52C109.181 156.415 106.629 152.241 105.519 147.596C105.482 147.32 105.509 147.039 105.598 146.775C105.686 146.512 105.834 146.272 106.029 146.074C106.225 145.876 106.463 145.725 106.725 145.634C106.988 145.542 107.268 145.512 107.544 145.545H138.785C139.059 145.516 139.337 145.549 139.596 145.643C139.855 145.736 140.09 145.887 140.283 146.085C140.475 146.282 140.621 146.521 140.708 146.782C140.795 147.044 140.821 147.322 140.785 147.596Z" fill="#B71422"/>
<path d="M112.81 159.722C115.647 162.453 119.322 164.148 123.241 164.532C127.151 164.142 130.816 162.448 133.646 159.722C134.551 158.878 135.397 157.973 136.177 157.013C134.618 155.243 132.713 153.812 130.579 152.806C128.446 151.8 126.13 151.242 123.772 151.165C121.25 151.224 118.78 151.896 116.575 153.122C114.37 154.348 112.496 156.092 111.114 158.203C111.696 158.734 112.203 159.241 112.81 159.722Z" fill="#FF6164"/>
<path d="M113.215 157.722C114.471 156.099 116.077 154.783 117.914 153.871C119.752 152.958 121.772 152.475 123.823 152.456C127.614 152.568 131.227 154.094 133.95 156.734C134.532 156.101 135.089 155.443 135.62 154.785C132.4 151.718 128.143 149.974 123.696 149.899C121.32 149.919 118.977 150.466 116.837 151.499C114.696 152.532 112.811 154.026 111.317 155.874C111.915 156.524 112.549 157.141 113.215 157.722Z" fill="black"/>
<path d="M123.165 165.798C118.946 165.428 114.976 163.644 111.899 160.734C107.98 157.42 105.222 152.941 104.026 147.95C103.94 147.505 103.954 147.047 104.068 146.609C104.182 146.171 104.392 145.764 104.684 145.418C105.031 144.999 105.469 144.665 105.965 144.441C106.46 144.217 107.001 144.11 107.545 144.127H138.785C139.328 144.115 139.867 144.225 140.361 144.449C140.856 144.672 141.295 145.003 141.646 145.418C141.934 145.765 142.141 146.173 142.251 146.612C142.36 147.05 142.37 147.507 142.279 147.95C141.083 152.941 138.324 157.42 134.405 160.734C131.335 163.639 127.375 165.422 123.165 165.798ZM107.545 147.063C107.139 147.063 107.038 147.241 107.013 147.291C108.083 151.62 110.504 155.495 113.924 158.355C116.425 160.819 119.677 162.378 123.165 162.785C126.643 162.382 129.891 160.843 132.405 158.405C135.815 155.54 138.226 151.666 139.291 147.342C139.236 147.261 139.16 147.197 139.07 147.157C138.981 147.116 138.882 147.102 138.785 147.114L107.545 147.063Z" fill="black"/>
<path d="M161.469 149.164C169.648 149.164 176.279 145.265 176.279 140.455C176.279 135.646 169.648 131.747 161.469 131.747C153.289 131.747 146.659 135.646 146.659 140.455C146.659 145.265 153.289 149.164 161.469 149.164Z" fill="#FEBBD0"/>
<path d="M84.8358 149.164C93.0152 149.164 99.6459 145.265 99.6459 140.455C99.6459 135.646 93.0152 131.747 84.8358 131.747C76.6564 131.747 70.0256 135.646 70.0256 140.455C70.0256 145.265 76.6564 149.164 84.8358 149.164Z" fill="#FEBBD0"/>
<path fill-rule="evenodd" clip-rule="evenodd" d="M91.7978 136.962C94.5578 136.967 97.2573 136.153 99.5546 134.623C101.852 133.093 103.644 130.917 104.703 128.368C105.763 125.82 106.043 123.014 105.508 120.307C104.972 117.599 103.646 115.111 101.696 113.158C99.746 111.204 97.2605 109.873 94.5539 109.333C91.8473 108.793 89.0412 109.067 86.4908 110.122C83.9404 111.177 81.7603 112.965 80.2264 115.26C78.6925 117.554 77.8738 120.252 77.8738 123.012C77.8738 126.708 79.34 130.252 81.9505 132.867C84.561 135.482 88.1026 136.955 91.7978 136.962ZM154.507 136.962C157.27 136.982 159.977 136.181 162.284 134.66C164.591 133.14 166.395 130.968 167.466 128.421C168.538 125.874 168.828 123.066 168.302 120.354C167.775 117.641 166.454 115.146 164.508 113.185C162.561 111.224 160.076 109.885 157.367 109.339C154.658 108.792 151.848 109.063 149.293 110.115C146.739 111.168 144.554 112.956 143.017 115.252C141.479 117.548 140.659 120.249 140.659 123.012C140.652 126.697 142.105 130.233 144.701 132.848C147.297 135.462 150.823 136.942 154.507 136.962Z" fill="black"/>
<path fill-rule="evenodd" clip-rule="evenodd" d="M87.494 123.898C88.5315 123.903 89.5472 123.6 90.4123 123.028C91.2775 122.455 91.9531 121.638 92.3536 120.681C92.7541 119.724 92.8615 118.669 92.6622 117.651C92.4629 116.633 91.9658 115.697 91.2339 114.961C90.502 114.226 89.5683 113.724 88.551 113.52C87.5338 113.316 86.4788 113.418 85.5198 113.814C84.5607 114.21 83.7407 114.882 83.1638 115.744C82.5868 116.606 82.2788 117.62 82.2788 118.658C82.2788 120.043 82.8274 121.373 83.8048 122.355C84.7821 123.337 86.1085 123.892 87.494 123.898ZM150.203 123.898C151.24 123.903 152.256 123.6 153.121 123.028C153.986 122.455 154.662 121.638 155.063 120.681C155.463 119.724 155.57 118.669 155.371 117.651C155.172 116.633 154.675 115.697 153.943 114.961C153.211 114.226 152.277 113.724 151.26 113.52C150.243 113.316 149.188 113.418 148.229 113.814C147.27 114.21 146.45 114.882 145.873 115.744C145.296 116.606 144.988 117.62 144.988 118.658C144.988 120.035 145.529 121.356 146.496 122.337C147.462 123.318 148.776 123.878 150.152 123.898H150.203Z" fill="white"/>
</svg>

		</g>
		
		<g transform="translate(1800, 0)">
            
			<svg width="256" height="256" viewBox="0 0 256 256" fill="none" xmlns="http://www.w3.org/2000/svg" id="turborepo">
<style>
#turborepo {
    rect {fill: #242938}
    path.circle {fill: #FFFFFF}
    
    @media (prefers-color-scheme: light) {
        rect {fill: #F4F2ED}
        path.circle {fill: #131313}
    }
}  
</style>
<rect width="256" height="256" fill="#242938" rx="60"/>
<path class="circle" d="M127.424 64.0898C92.487 64.0898 64.0635 92.5357 64.0635 127.5C64.0635 162.464 92.487 190.91 127.424 190.91C162.36 190.91 190.784 162.464 190.784 127.5C190.784 92.5357 162.36 64.0898 127.424 64.0898ZM127.424 160.315C109.312 160.315 94.6344 145.625 94.6344 127.5C94.6344 109.374 109.312 94.6848 127.424 94.6848C145.535 94.6848 160.213 109.374 160.213 127.5C160.213 145.625 145.535 160.315 127.424 160.315Z" fill="white"/>
<path fill-rule="evenodd" clip-rule="evenodd" d="M132.733 53.6754V30C184.152 32.7513 225 75.3552 225 127.5C225 179.645 184.152 222.237 132.733 225V201.325C171.055 198.585 201.402 166.538 201.402 127.5C201.402 88.4622 171.055 56.4149 132.733 53.6754ZM71.5439 175.913C61.3851 164.176 54.8367 149.227 53.6686 132.813H30C31.2271 155.78 40.4066 176.622 54.7895 192.669L71.5321 175.913H71.5439ZM122.114 225V201.325C105.702 200.156 90.7643 193.614 79.0362 183.435L62.2936 200.191C78.3401 214.597 99.1651 223.772 122.102 225H122.114Z" fill="url(#paint0_linear_478_43)"/>
<defs>
<linearGradient id="paint0_linear_478_43" x1="136.556" y1="43.7105" x2="40.58" y2="139.612" gradientUnits="userSpaceOnUse">
<stop stop-color="#0096FF"/>
<stop offset="1" stop-color="#FF1E56"/>
</linearGradient>
</defs>
</svg>

		</g>
		
		<g transform="translate(2100, 0)">
            
			<svg width="256" height="256" viewBox="0 0 256 256" fill="none" xmlns="http://www.w3.org/2000/svg" id="playwright">
<style>
#playwright {
    rect {fill: #242938}

    @media (prefers-color-scheme: light) {
        rect {fill: #F4F2ED}
    }
}
</style>
<rect width="256" height="256" rx="50" fill="#242938"/>
<path d="M103.878 172.836V158.363L63.6658 169.766C63.6658 169.766 66.6372 152.501 87.6087 146.552C93.9687 144.75 99.3952 144.762 103.878 145.628V86.2645H124.012C121.82 79.4903 119.699 74.2748 117.918 70.651C114.971 64.6529 111.951 68.629 105.093 74.3645C100.264 78.3994 88.0571 87.0071 69.6888 91.9568C51.3201 96.9097 36.4701 95.5961 30.2741 94.5232C21.4901 93.0078 16.8957 91.0787 17.3255 97.76C17.6996 103.653 19.1033 112.79 22.3188 124.857C29.2754 150.989 52.2662 201.343 95.7158 189.64C107.065 186.582 115.076 180.537 120.629 172.833H103.878V172.836ZM38.9899 125.215L69.8681 117.081C69.8681 117.081 68.9681 128.96 57.3925 132.012C45.8136 135.06 38.9899 125.215 38.9899 125.215Z" fill="#E2574C"/>
<path d="M220.088 86.951C212.062 88.3581 192.806 90.111 169.008 83.7323C145.204 77.3574 129.411 66.208 123.153 60.9674C114.283 53.5377 110.381 48.3743 106.541 56.1843C103.146 63.0729 98.8049 74.2839 94.6029 89.9781C85.4978 123.963 78.6927 195.681 134.979 210.773C191.254 225.852 221.213 160.336 230.319 126.347C234.521 110.656 236.364 98.7742 236.871 91.1129C237.449 82.4342 231.487 84.9536 220.088 86.951ZM106.998 115.068C106.998 115.068 115.869 101.272 130.913 105.548C145.967 109.825 147.133 126.468 147.133 126.468L106.998 115.068ZM143.723 176.976C117.26 169.225 113.179 148.123 113.179 148.123L184.266 167.997C184.266 167.994 169.917 184.631 143.723 176.976ZM168.856 133.61C168.856 133.61 177.715 119.823 192.756 124.112C207.798 128.394 208.982 145.037 208.982 145.037L168.856 133.61Z" fill="#2EAD33"/>
<path d="M89.8257 162.348L63.666 169.763C63.666 169.763 66.5076 153.574 85.7786 147.159L70.9657 91.5677L69.6857 91.9568C51.3172 96.9103 36.4671 95.5961 30.2711 94.5232C21.4873 93.0083 16.8928 91.0787 17.3226 97.7607C17.6967 103.654 19.1004 112.79 22.3158 124.857C29.2725 150.989 52.2633 201.343 95.7128 189.64L96.9928 189.238L89.8257 162.348ZM38.9901 125.216L69.8683 117.081C69.8683 117.081 68.9683 128.96 57.3926 132.012C45.8138 135.06 38.9901 125.216 38.9901 125.216Z" fill="#D65348"/>
<path d="M144.916 177.266L143.72 176.976C117.257 169.225 113.176 148.123 113.176 148.123L149.833 158.369L169.24 83.7942L169.005 83.7323C145.201 77.3574 129.408 66.208 123.15 60.9674C114.28 53.5377 110.378 48.3743 106.538 56.1843C103.146 63.0729 98.8049 74.2839 94.6029 89.9781C85.4978 123.963 78.6927 195.681 134.979 210.772L136.133 211.032L144.916 177.266ZM106.998 115.068C106.998 115.068 115.869 101.272 130.913 105.548C145.967 109.825 147.133 126.468 147.133 126.468L106.998 115.068Z" fill="#1D8D22"/>
<path d="M91.1588 161.968L84.1434 163.959C85.8008 173.303 88.7221 182.269 93.3072 190.19C94.1053 190.014 94.8969 189.863 95.7098 189.64C97.8401 189.065 99.8156 188.354 101.718 187.577C96.5943 179.975 93.2053 171.219 91.1588 161.968ZM88.4195 96.1619C84.8143 109.617 81.5892 128.985 82.4769 148.41C84.0659 147.721 85.7447 147.078 87.6092 146.549L88.9079 146.259C87.3247 125.509 90.7472 104.364 94.6027 89.978C95.5801 86.3387 96.5601 82.9535 97.5369 79.7968C95.9634 80.798 94.2692 81.8245 92.3395 82.8819C91.0382 86.8987 89.724 91.289 88.4195 96.1619Z" fill="#C04B41"/>
</svg>

		</g>
		
		<g transform="translate(2400, 0)">
            
			<svg xmlns="http://www.w3.org/2000/svg" width="256" height="256" fill="none" viewBox="0 0 256 256" id="materialui">
<style>
#materialui {
    rect {fill: #242938}

    @media (prefers-color-scheme: light) {
        rect {fill: #F4F2ED}
    }
}
</style>
<rect width="256" height="256" fill="#242938" rx="60"/>
<path fill="#007FFF" fill-rule="evenodd" d="M192.031 157.671C192.823 157.216 193.482 156.561 193.941 155.771C194.4 154.981 194.643 154.084 194.646 153.171L194.74 123.03C194.742 122.117 194.986 121.22 195.445 120.43C195.903 119.64 196.562 118.985 197.354 118.53L213.693 109.145C214.485 108.69 215.382 108.452 216.295 108.453C217.208 108.455 218.105 108.696 218.895 109.154C219.686 109.611 220.342 110.268 220.798 111.059C221.254 111.85 221.495 112.747 221.495 113.661V168.457C221.495 169.374 221.253 170.273 220.794 171.066C220.335 171.859 219.675 172.517 218.88 172.973L157.219 208.39C156.431 208.842 155.539 209.08 154.631 209.081C153.723 209.082 152.83 208.845 152.042 208.395L103.651 180.718C102.854 180.262 102.191 179.605 101.73 178.811C101.269 178.017 101.026 177.115 101.026 176.197V148.567C101.026 148.536 101.063 148.515 101.094 148.53C101.12 148.546 101.156 148.53 101.156 148.494V148.463C101.156 148.442 101.167 148.421 101.188 148.411L141.042 125.515C141.078 125.494 141.062 125.437 141.021 125.437C141.01 125.437 140.999 125.432 140.991 125.424C140.984 125.417 140.979 125.406 140.979 125.395L141.057 98.3064C141.061 97.3904 140.823 96.4896 140.367 95.6949C139.912 94.9003 139.254 94.2399 138.462 93.7803C137.67 93.3207 136.77 93.0782 135.854 93.0773C134.938 93.0764 134.038 93.3171 133.245 93.7751L103.625 110.843C102.834 111.298 101.938 111.538 101.026 111.538C100.114 111.538 99.2176 111.298 98.4271 110.843L68.7135 93.7335C67.9219 93.2776 67.0243 93.038 66.1109 93.0387C65.1974 93.0393 64.3001 93.2802 63.5092 93.7372C62.7182 94.1941 62.0613 94.8511 61.6045 95.6421C61.1476 96.4331 60.9068 97.3304 60.9063 98.2439V147.202C60.9069 148.115 60.6677 149.011 60.2128 149.802C59.7578 150.593 59.1031 151.251 58.314 151.709C57.525 152.168 56.6293 152.411 55.7168 152.414C54.8043 152.417 53.9069 152.181 53.1146 151.728L36.625 142.301C35.8263 141.845 35.1627 141.185 34.7016 140.389C34.2405 139.594 33.9985 138.69 34 137.77L34.1458 52.197C34.1478 51.2847 34.3894 50.389 34.8464 49.5994C35.3033 48.8098 35.9597 48.1541 36.7497 47.698C37.5397 47.2418 38.4357 47.0011 39.348 47C40.2603 46.9989 41.1568 47.2375 41.9479 47.6918L98.4323 80.1345C99.2216 80.5878 100.116 80.8263 101.026 80.8263C101.936 80.8263 102.831 80.5878 103.62 80.1345L160.089 47.6918C160.881 47.2368 161.779 46.9982 162.692 47C163.606 47.0018 164.503 47.2438 165.294 47.7019C166.084 48.1599 166.74 48.8178 167.196 49.6096C167.652 50.4013 167.891 51.299 167.891 52.2126V137.806C167.891 138.722 167.65 139.622 167.192 140.414C166.734 141.207 166.075 141.865 165.281 142.322L135.708 159.353C134.914 159.811 134.255 160.471 133.797 161.265C133.339 162.059 133.099 162.961 133.101 163.878C133.103 164.794 133.347 165.694 133.809 166.487C134.27 167.279 134.933 167.935 135.729 168.39L152.042 177.676C152.83 178.125 153.722 178.36 154.629 178.358C155.536 178.356 156.427 178.118 157.214 177.666L192.031 157.671V157.671ZM195.453 80.8897C195.454 81.8108 195.699 82.7152 196.163 83.5107C196.627 84.3062 197.294 84.9644 198.096 85.4182C198.897 85.8719 199.805 86.1049 200.726 86.0935C201.647 86.0821 202.548 85.8267 203.339 85.3532L218.964 75.9782C219.735 75.5161 220.373 74.862 220.817 74.0798C221.261 73.2976 221.494 72.4139 221.495 71.5147V52.4105C221.493 51.4899 221.247 50.5862 220.783 49.7914C220.318 48.9966 219.651 48.3391 218.85 47.886C218.048 47.4329 217.141 47.2003 216.221 47.2119C215.3 47.2236 214.399 47.479 213.609 47.9522L197.984 57.3272C197.213 57.7894 196.574 58.4434 196.131 59.2256C195.687 60.0078 195.454 60.8915 195.453 61.7908V80.8949V80.8897Z" clip-rule="evenodd"/>
</svg>

		</g>
		
		<g transform="translate(2700, 0)">
            
			<svg xmlns="http://www.w3.org/2000/svg" width="256" height="256" fill="none" viewBox="0 0 256 256" id="godot">
<style>
#godot {
    rect {fill: #242938}

    @media (prefers-color-scheme: light) {
        rect {fill: #F4F2ED}
    }
}
</style>
<rect width="256" height="256" fill="#242938" rx="60"/>
<path fill="#fff" d="M222.017 163.681C222.017 163.681 221.705 161.792 221.522 161.809L186.772 165.116C184.007 165.379 181.86 167.554 181.666 170.286L180.711 183.781L153.827 185.673L151.998 173.442C151.591 170.722 149.182 168.672 146.394 168.672H109.718C106.931 168.672 104.522 170.722 104.115 173.442L102.285 185.673L75.4013 183.781L74.4466 170.286C74.2526 167.553 72.1051 165.378 69.3401 165.115L34.573 161.809C34.3934 161.792 34.2618 163.683 34.0822 163.683L34.0352 171.099L63.4796 175.782L64.4439 189.397C64.6389 192.153 66.8939 194.382 69.6906 194.58L106.716 197.185C106.856 197.194 106.994 197.2 107.133 197.2C109.915 197.2 112.32 195.148 112.727 192.428L114.608 179.844H141.505L143.386 192.428C143.793 195.147 146.2 197.199 148.987 197.199C149.123 197.199 149.259 197.194 149.393 197.185L186.423 194.58C189.218 194.382 191.474 192.153 191.669 189.397L192.633 175.782L222.065 171.078L222.017 163.681Z"/>
<path fill="#478CBF" d="M34.0818 107.758V152.763V158.479V163.681C34.1856 163.682 34.2893 163.686 34.3921 163.695L69.1553 167.001C70.9763 167.174 72.4034 168.619 72.5302 170.419L73.602 185.553L103.926 187.687L106.015 173.719C106.286 171.908 107.861 170.566 109.719 170.566H146.395C148.251 170.566 149.827 171.908 150.097 173.719L152.186 187.687L182.511 185.553L183.582 170.419C183.71 168.619 185.136 167.175 186.957 167.001L221.707 163.695C221.81 163.686 221.913 163.682 222.016 163.681V159.219L222.031 159.214V107.758H222.159C226.765 101.961 231.026 95.8527 235.113 89.3361C229.685 80.2242 223.035 72.0812 215.927 64.5368C209.335 67.8094 202.932 71.5167 196.884 75.4617C193.858 72.4951 190.449 70.0684 187.101 67.5318C183.812 64.9261 180.105 63.0157 176.589 60.7898C177.635 53.1014 178.153 45.5325 178.361 37.6329C169.289 33.13 159.615 30.1445 149.829 28C145.922 34.476 142.35 41.4889 139.238 48.3447C135.548 47.7366 131.841 47.5112 128.129 47.4676V47.4619C128.103 47.4619 128.079 47.4676 128.057 47.4676C128.034 47.4676 128.01 47.4619 127.987 47.4619V47.4676C124.268 47.5112 120.564 47.7366 116.873 48.3447C113.763 41.4889 110.192 34.476 106.279 28C96.4984 30.1445 86.8232 33.13 77.752 37.6329C77.9595 45.5325 78.4771 53.1014 79.5269 60.7898C76.0041 63.0157 72.3016 64.9261 69.0113 67.5318C65.668 70.0684 62.2538 72.4951 59.2265 75.4617C53.1788 71.5167 46.7776 67.8094 40.1834 64.5368C33.0753 72.0812 26.4292 80.2242 21 89.3361C25.0847 95.8527 29.3489 101.961 33.9531 107.758H34.0818Z"/>
<path fill="#478CBF" d="M190.83 174.05L189.753 189.265C189.624 191.099 188.144 192.558 186.285 192.69L149.256 195.296C149.166 195.302 149.076 195.305 148.986 195.305C147.146 195.305 145.559 193.973 145.287 192.151L143.163 177.949H112.95L110.826 192.151C110.541 194.062 108.808 195.437 106.857 195.296L69.8278 192.69C67.9684 192.558 66.4894 191.099 66.3597 189.265L65.2831 174.05L34.0244 171.078C34.0388 174.391 34.0821 178.021 34.0821 178.744C34.0821 211.302 75.961 226.952 127.993 227.132H128.056H128.12C180.152 226.952 222.016 211.302 222.016 178.744C222.016 178.008 222.062 174.393 222.077 171.078L190.83 174.05Z"/>
<path fill="#fff" d="M99.7266 130.459C99.7266 141.874 90.3481 151.122 78.777 151.122C67.2117 151.122 57.8303 141.874 57.8303 130.459C57.8303 119.051 67.2117 109.808 78.777 109.808C90.3481 109.808 99.7266 119.051 99.7266 130.459Z"/>
<path fill="#414042" d="M94.6858 131.684C94.6858 139.256 88.4632 145.393 80.7799 145.393C73.1004 145.393 66.874 139.256 66.874 131.684C66.874 124.112 73.1004 117.97 80.7799 117.97C88.4632 117.97 94.6858 124.112 94.6858 131.684Z"/>
<path fill="#fff" d="M128.055 153.001C124.33 153.001 121.312 150.294 121.312 146.957V127.937C121.312 124.603 124.33 121.893 128.055 121.893C131.779 121.893 134.804 124.603 134.804 127.937V146.957C134.804 150.294 131.779 153.001 128.055 153.001Z"/>
<path fill="#fff" d="M156.386 130.459C156.386 141.874 165.765 151.122 177.338 151.122C188.902 151.122 198.283 141.874 198.283 130.459C198.283 119.051 188.902 109.808 177.338 109.808C165.765 109.808 156.386 119.051 156.386 130.459Z"/>
<path fill="#414042" d="M161.428 131.684C161.428 139.256 167.649 145.393 175.327 145.393C183.012 145.393 189.233 139.256 189.233 131.684C189.233 124.112 183.012 117.97 175.327 117.97C167.649 117.97 161.428 124.112 161.428 131.684Z"/>
</svg>

		</g>
		</svg>