
            <svg width="554" height="48" viewBox="0 0 2956 256" fill="none" xmlns="http://www.w3.org/2000/svg" xmlns:xlink="http://www.w3.org/1999/xlink" version="1.1">
        
		<g transform="translate(0, 0)">
            
			<svg xmlns="http://www.w3.org/2000/svg" width="256" height="256" fill="none" viewBox="0 0 256 256">
<rect width="256" height="256" fill="#007ACC" rx="60"/>
<path fill="#fff" d="M56.6112 128.849L56.5299 139.333H73.1902H89.8505L89.8505 186.673V234.012H101.635H113.419V186.673L113.419 139.333H130.079H146.739V129.052C146.739 123.363 146.618 118.609 146.455 118.487C146.333 118.325 126.056 118.243 101.472 118.284L56.7331 118.406L56.6112 128.849Z"/>
<path fill="#fff" d="M206.567 118.108C213.068 119.734 218.026 122.619 222.577 127.332C224.934 129.852 228.428 134.444 228.713 135.541C228.794 135.866 217.66 143.343 210.915 147.528C210.671 147.691 209.695 146.634 208.598 145.009C205.307 140.214 201.853 138.141 196.57 137.776C188.809 137.247 183.811 141.311 183.852 148.097C183.852 150.088 184.136 151.266 184.949 152.892C186.655 156.427 189.825 158.54 199.781 162.847C218.107 170.731 225.949 175.932 230.826 183.327C236.271 191.576 237.49 204.742 233.792 214.535C229.729 225.181 219.651 232.414 205.469 234.812C201.081 235.584 190.678 235.462 185.965 234.609C175.684 232.78 165.932 227.701 159.918 221.037C157.561 218.436 152.969 211.65 153.254 211.162C153.375 211 154.432 210.35 155.61 209.659C156.748 209.009 161.056 206.53 165.119 204.173L172.474 199.906L174.018 202.182C176.172 205.473 180.885 209.984 183.73 211.487C191.897 215.795 203.113 215.185 208.639 210.228C210.996 208.074 211.971 205.839 211.971 202.548C211.971 199.581 211.605 198.281 210.061 196.046C208.07 193.202 204.007 190.804 192.466 185.806C179.26 180.117 173.571 176.582 168.37 170.974C165.363 167.724 162.518 162.522 161.34 158.174C160.365 154.558 160.121 145.496 160.893 141.839C163.615 129.08 173.246 120.181 187.143 117.539C191.654 116.686 202.137 117.011 206.567 118.108Z"/>
</svg>

		</g>
		
		<g transform="translate(300, 0)">
            
			<svg width="256" height="256" viewBox="0 0 256 256" fill="none" xmlns="http://www.w3.org/2000/svg">
<rect width="256" height="256" rx="60" fill="#F0DB4F"/>
<path d="M67.3117 213.932L86.9027 202.076C90.6821 208.777 94.1202 214.447 102.367 214.447C110.272 214.447 115.256 211.355 115.256 199.327V117.529H139.314V199.667C139.314 224.584 124.708 235.926 103.398 235.926C84.1533 235.926 72.9819 225.959 67.3113 213.93" fill="#323330"/>
<path d="M152.381 211.354L171.969 200.013C177.126 208.434 183.828 214.62 195.684 214.62C205.653 214.62 212.009 209.636 212.009 202.762C212.009 194.514 205.479 191.592 194.481 186.782L188.468 184.203C171.111 176.815 159.597 167.535 159.597 147.945C159.597 129.901 173.345 116.153 194.826 116.153C210.12 116.153 221.118 121.481 229.022 135.4L210.291 147.429C206.166 140.04 201.7 137.119 194.826 137.119C187.78 137.119 183.312 141.587 183.312 147.429C183.312 154.646 187.78 157.568 198.09 162.037L204.104 164.614C224.553 173.379 236.067 182.313 236.067 202.418C236.067 224.072 219.055 235.928 196.2 235.928C173.861 235.928 159.426 225.274 152.381 211.354" fill="#323330"/>
</svg>

		</g>
		
		<g transform="translate(600, 0)">
            
			<svg xmlns="http://www.w3.org/2000/svg" width="256" height="256" fill="none" viewBox="0 0 256 256">
<rect width="256" height="256" fill="#E14E1D" rx="60"/>
<path fill="#fff" d="M48 38L56.6098 134.593H167.32L163.605 176.023L127.959 185.661L92.38 176.037L90.0012 149.435H57.9389L62.5236 200.716L127.951 218.888L193.461 200.716L202.244 102.655H85.8241L82.901 69.9448H205.041H205.139L208 38H48Z"/>
<path fill="#EBEBEB" d="M128 38H48L56.6098 134.593H128V102.655H85.8241L82.901 69.9448H128V38Z"/>
<path fill="#EBEBEB" d="M128 185.647L127.959 185.661L92.38 176.037L90.0012 149.435H57.9388L62.5236 200.716L127.951 218.888L128 218.874V185.647Z"/>
</svg>

		</g>
		
		<g transform="translate(900, 0)">
            
			<svg xmlns="http://www.w3.org/2000/svg" width="256" height="256" viewBox="0 0 256 256">
<path fill="#639" d="M196 0H0L1.90735e-06 196C1.90735e-06 229.137 26.8629 256 60 256H196C229.137 256 256 229.137 256 196V60C256 26.8629 229.137 0 196 0Z" />
<path fill="#fff" d="M209.034,235.494C200.742,235.494 194.401,233.083 189.962,228.237C185.572,223.365 183.286,216.415 183.081,207.337L200.95,207.337C201.052,215.365 203.873,219.389 209.418,219.389C212.244,219.389 214.246,218.493 215.401,216.722C216.53,214.956 217.121,212.132 217.121,208.261C217.121,205.184 216.351,202.619 214.861,200.594C212.839,198.185 210.244,196.324 207.314,195.182L200.691,192C194.788,189.179 190.5,185.846 187.855,181.947C185.288,178.074 184.005,172.639 184.005,165.691C184.005,157.919 186.266,151.611 190.756,146.762C195.377,141.916 201.667,139.507 209.7,139.507C217.457,139.507 223.462,141.891 227.697,146.634C232.01,151.406 234.268,158.226 234.45,167.15L217.249,167.15C217.352,164.232 216.763,161.334 215.529,158.687C214.556,156.741 212.654,155.766 209.83,155.766C204.8,155.766 202.284,158.764 202.284,164.739C202.284,167.767 202.898,170.125 204.132,171.919C205.909,173.905 208.136,175.436 210.627,176.384L216.968,179.18C223.514,182.18 228.237,185.848 231.137,190.285C234.063,194.696 235.502,200.594 235.502,207.98C235.502,216.827 233.19,223.621 228.493,228.365C223.821,233.108 217.326,235.494 209.037,235.494L209.034,235.494ZM151.327,235.494C143.032,235.494 136.694,233.083 132.252,228.237C127.862,223.365 125.578,216.415 125.373,207.337L143.24,207.337C143.342,215.365 146.166,219.389 151.713,219.389C154.534,219.389 156.536,218.493 157.665,216.722C158.822,214.956 159.386,212.132 159.386,208.261C159.386,205.184 158.643,202.619 157.153,200.594C155.132,198.185 152.536,196.324 149.606,195.182L142.984,192C137.078,189.179 132.792,185.846 130.148,181.947C127.58,178.074 126.298,172.639 126.298,165.691C126.298,157.919 128.556,151.611 133.048,146.762C137.669,141.916 143.959,139.507 151.992,139.507C159.747,139.507 165.752,141.891 169.964,146.634C174.328,151.406 176.561,158.226 176.74,167.15L159.542,167.15C159.644,164.232 159.055,161.334 157.821,158.687C156.846,156.741 154.947,155.766 152.123,155.766C147.09,155.766 144.573,158.764 144.573,164.739C144.573,167.767 145.19,170.125 146.422,171.919C148.199,173.905 150.426,175.436 152.916,176.384L159.258,179.18C165.804,182.18 170.527,185.848 173.43,190.285C176.33,194.696 177.792,200.594 177.792,207.98C177.792,216.827 175.457,223.621 170.785,228.365C166.113,233.108 159.619,235.494 151.327,235.494ZM91.231,235.494C83.116,235.494 76.675,233.288 71.9,228.877C67.126,224.494 64.763,217.902 64.763,209.183L64.763,166.1C64.763,157.435 67.279,150.868 72.31,146.355C77.42,141.893 84.119,139.638 92.411,139.638C100.447,139.638 106.785,141.944 111.483,146.509C116.234,151.099 118.62,157.921 118.62,167.025L118.62,170.435L99.702,170.435L99.702,167.127C99.702,163.615 98.931,161.024 97.441,159.332C96.122,157.617 94.059,156.634 91.896,156.69C88.817,156.69 86.636,157.74 85.402,159.869C84.088,162.816 83.498,166.034 83.681,169.254L83.681,206.697C83.681,214.518 86.431,218.493 91.899,218.57C94.464,218.57 96.389,217.646 97.725,215.8C99.176,213.469 99.867,210.743 99.702,208.003L99.702,205.21L118.62,205.21L118.62,208.133C118.62,214.211 117.44,219.287 115.052,223.34C112.782,227.294 109.373,230.475 105.272,232.468C100.892,234.559 96.083,235.595 91.231,235.494Z" />
</svg>

		</g>
		
		<g transform="translate(1200, 0)">
            
			<svg xmlns="http://www.w3.org/2000/svg" width="256" height="256" fill="none" viewBox="0 0 256 256" id="java">
<style>
#java {
    rect {fill: #242938}

    @media (prefers-color-scheme: light) {
        rect {fill: #F4F2ED}
        path.mug {fill: #4E7896}
    }
}
</style>
<rect width="256" height="256" fill="#242938" rx="60"/>
<path fill="#fff" d="M101.634 182.619C101.634 182.619 93.9548 187.293 106.979 188.63C122.707 190.634 131.023 190.299 148.386 186.962C148.386 186.962 153.06 189.971 159.406 192.306C120.331 209.002 70.9089 191.304 101.634 182.619ZM96.6252 160.914C96.6252 160.914 88.2753 167.26 101.299 168.593C118.327 170.262 131.69 170.597 154.732 165.926C154.732 165.926 157.741 169.267 162.747 170.936C115.664 184.961 62.8975 172.269 96.6252 160.917V160.914ZM188.795 198.984C188.795 198.984 194.471 203.658 182.449 207.334C160.073 214.012 88.6104 216.019 68.5735 207.334C61.564 204.325 74.9197 199.982 79.2587 199.319C83.6012 198.317 85.9366 198.317 85.9366 198.317C78.2569 192.973 34.8424 209.337 63.8959 214.046C143.709 227.073 209.499 208.37 188.792 199.018L188.795 198.984ZM105.307 138.203C105.307 138.203 68.9052 146.888 92.2793 149.89C102.298 151.223 122 150.892 140.368 149.555C155.396 148.221 170.458 145.548 170.458 145.548C170.458 145.548 165.113 147.886 161.441 150.222C124.342 159.915 53.2107 155.573 73.5827 145.554C90.9526 137.204 105.307 138.203 105.307 138.203V138.203ZM170.423 174.604C207.83 155.234 190.46 136.534 178.438 138.873C175.429 139.54 174.096 140.207 174.096 140.207C174.096 140.207 175.097 138.203 177.436 137.54C201.145 129.19 219.849 162.586 169.757 175.61C169.757 175.61 170.092 175.275 170.423 174.608V174.604ZM108.979 227.364C145.046 229.703 200.147 226.03 201.484 208.995C201.484 208.995 198.817 215.673 171.764 220.683C141.042 226.359 102.968 225.692 80.5957 222.016C80.5957 222.016 85.2698 226.023 108.982 227.36L108.979 227.364Z" class="mug" />
<path fill="#F58219" d="M147.685 28C147.685 28 168.389 49.0388 127.983 80.7594C95.5891 106.472 120.632 121.168 127.983 137.861C108.948 120.833 95.2609 105.802 104.606 91.7762C118.331 71.0828 156.062 61.0644 147.685 28ZM137 123.842C146.683 134.862 134.333 144.881 134.333 144.881C134.333 144.881 159.044 132.195 147.692 116.494C137.338 101.466 129.324 94.1184 172.738 69.0689C172.738 69.0689 104.278 86.0968 137.007 123.835L137 123.842Z"/>
</svg>

		</g>
		
		<g transform="translate(1500, 0)">
            
			<svg xmlns="http://www.w3.org/2000/svg" width="256" height="256" fill="none" viewBox="0 0 256 256" id="python">
<style>
#python {
    rect {fill: #242938}

    @media (prefers-color-scheme: light) {
        rect {fill: #F4F2ED}
    }
}
</style>
<rect width="256" height="256" fill="#242938" rx="60"/>
<path fill="url(#paint0_linear_2_47)" d="M127.279 29C76.5066 29 79.6772 51.018 79.6772 51.018L79.7338 73.8284H128.185V80.6772H60.4893C60.4893 80.6772 28 76.9926 28 128.222C28 179.452 56.3573 177.636 56.3573 177.636H73.2812V153.863C73.2812 153.863 72.369 125.506 101.186 125.506H149.24C149.24 125.506 176.239 125.942 176.239 99.4123V55.5461C176.239 55.5461 180.338 29 127.279 29ZM100.563 44.339C105.384 44.339 109.28 48.2351 109.28 53.0556C109.28 57.8761 105.384 61.7723 100.563 61.7723C95.7426 61.7723 91.8465 57.8761 91.8465 53.0556C91.8465 48.2351 95.7426 44.339 100.563 44.339Z"/>
<path fill="url(#paint1_linear_2_47)" d="M128.721 227.958C179.493 227.958 176.323 205.941 176.323 205.941L176.266 183.13H127.815V176.281H195.511C195.511 176.281 228 179.966 228 128.736C228 77.5062 199.643 79.323 199.643 79.323H182.719V103.096C182.719 103.096 183.631 131.453 154.814 131.453H106.76C106.76 131.453 79.7607 131.016 79.7607 157.546V201.412C79.7607 201.412 75.6615 227.958 128.721 227.958ZM155.437 212.619C150.616 212.619 146.72 208.723 146.72 203.903C146.72 199.082 150.616 195.186 155.437 195.186C160.257 195.186 164.154 199.082 164.154 203.903C164.154 208.723 160.257 212.619 155.437 212.619Z"/>
<defs>
<linearGradient id="paint0_linear_2_47" x1="47.22" x2="146.333" y1="46.896" y2="145.02" gradientUnits="userSpaceOnUse">
<stop stop-color="#387EB8"/>
<stop offset="1" stop-color="#366994"/>
</linearGradient>
<linearGradient id="paint1_linear_2_47" x1="108.056" x2="214.492" y1="109.905" y2="210.522" gradientUnits="userSpaceOnUse">
<stop stop-color="#FFE052"/>
<stop offset="1" stop-color="#FFC331"/>
</linearGradient>
</defs>
</svg>

		</g>
		
		<g transform="translate(1800, 0)">
            
			<svg xmlns="http://www.w3.org/2000/svg" width="256" height="256" fill="none" viewBox="0 0 256 256">
<rect width="256" height="256" fill="#00B4E0" rx="60"/>
<path fill="#fff" d="M40.5 113.234C40.1 113.234 40 113.034 40.2 112.734L42.3 110.034C42.5 109.734 43 109.534 43.4 109.534H79.1C79.5 109.534 79.6 109.834 79.4 110.134L77.7 112.734C77.5 113.034 77 113.334 76.7 113.334L40.5 113.234Z"/>
<path fill="#fff" d="M25.4 122.434C25 122.434 24.9 122.234 25.1 121.934L27.2 119.234C27.4 118.934 27.9 118.734 28.3 118.734H73.9C74.3 118.734 74.5 119.034 74.4 119.334L73.6 121.734C73.5 122.134 73.1 122.334 72.7 122.334L25.4 122.434Z"/>
<path fill="#fff" d="M49.6 131.634C49.2 131.634 49.1 131.334 49.3 131.034L50.7 128.534C50.9 128.234 51.3 127.934 51.7 127.934H71.7C72.1 127.934 72.3 128.234 72.3 128.634L72.1 131.034C72.1 131.434 71.7 131.734 71.4 131.734L49.6 131.634Z"/>
<path fill="#fff" d="M153.4 111.434C147.1 113.034 142.8 114.234 136.6 115.834C135.1 116.234 135 116.334 133.7 114.834C132.2 113.134 131.1 112.034 129 111.034C122.7 107.934 116.6 108.834 110.9 112.534C104.1 116.934 100.6 123.434 100.7 131.534C100.8 139.534 106.3 146.134 114.2 147.234C121 148.134 126.7 145.734 131.2 140.634C132.1 139.534 132.9 138.334 133.9 136.934C130.3 136.934 125.8 136.934 114.6 136.934C112.5 136.934 112 135.634 112.7 133.934C114 130.834 116.4 125.634 117.8 123.034C118.1 122.434 118.8 121.434 120.3 121.434C125.4 121.434 144.2 121.434 156.7 121.434C156.5 124.134 156.5 126.834 156.1 129.534C155 136.734 152.3 143.334 147.9 149.134C140.7 158.634 131.3 164.534 119.4 166.134C109.6 167.434 100.5 165.534 92.5 159.534C85.1 153.934 80.9 146.534 79.8 137.334C78.5 126.434 81.7 116.634 88.3 108.034C95.4 98.7343 104.8 92.8343 116.3 90.7343C125.7 89.0343 134.7 90.1343 142.8 95.6343C148.1 99.1343 151.9 103.934 154.4 109.734C155 110.634 154.6 111.134 153.4 111.434Z"/><path fill="#fff" d="M186.5 166.734C177.4 166.534 169.1 163.934 162.1 157.934C156.2 152.834 152.5 146.334 151.3 138.634C149.5 127.334 152.6 117.334 159.4 108.434C166.7 98.8343 175.5 93.8343 187.4 91.7343C197.6 89.9343 207.2 90.9343 215.9 96.8343C223.8 102.234 228.7 109.534 230 119.134C231.7 132.634 227.8 143.634 218.5 153.034C211.9 159.734 203.8 163.934 194.5 165.834C191.8 166.334 189.1 166.434 186.5 166.734ZM210.3 126.334C210.2 125.034 210.2 124.034 210 123.034C208.2 113.134 199.1 107.534 189.6 109.734C180.3 111.834 174.3 117.734 172.1 127.134C170.3 134.934 174.1 142.834 181.3 146.034C186.8 148.434 192.3 148.134 197.6 145.434C205.5 141.334 209.8 134.934 210.3 126.334Z"/>
</svg>

		</g>
		
		<g transform="translate(2100, 0)">
            
			<svg width="256" height="256" viewBox="0 0 256 256" fill="none" xmlns="http://www.w3.org/2000/svg" id="rust">
<style>
#rust {
    path.rect {fill: #242938}

    @media (prefers-color-scheme: light) {
        path.rect {fill: #F4F2ED}
    }
}
</style>
<path d="M196 0H60C26.8629 0 0 26.8629 0 60V196C0 229.137 26.8629 256 60 256H196C229.137 256 256 229.137 256 196V60C256 26.8629 229.137 0 196 0Z" fill="#242938" class="rect"/>
<path d="M225.613 125.628L217.306 120.479C217.236 119.669 217.157 118.861 217.069 118.056L224.222 111.393C224.949 110.715 225.275 109.712 225.078 108.742C224.886 107.768 224.203 106.965 223.275 106.623L214.134 103.215C213.905 102.424 213.664 101.638 213.419 100.849L219.115 92.9361C219.696 92.1315 219.815 91.0847 219.437 90.1723C219.058 89.2579 218.231 88.603 217.261 88.442L207.628 86.8747C207.253 86.144 206.863 85.4246 206.469 84.7166L210.52 75.8196C210.934 74.9147 210.848 73.8697 210.296 73.0369C209.745 72.2114 208.813 71.7288 207.817 71.7666L198.033 72.1073C197.528 71.4751 197.013 70.8486 196.489 70.2333L198.741 60.7115C198.968 59.7442 198.683 58.7239 197.979 58.0235C197.28 57.3231 196.266 57.0334 195.291 57.2605L185.773 59.5132C185.156 58.9907 184.529 58.474 183.895 57.9686L184.238 48.1818C184.275 47.1917 183.792 46.2509 182.968 45.702C182.141 45.1491 181.094 45.0658 180.185 45.4766L171.31 49.5277C170.593 49.134 169.874 48.744 169.153 48.3673L167.582 38.7319C167.424 37.7551 166.768 36.926 165.852 36.5549C164.938 36.1745 163.885 36.2975 163.09 36.8768L155.18 42.5747C154.399 42.3267 153.616 42.0882 152.833 41.861L149.426 32.7179C149.079 31.7865 148.277 31.1031 147.307 30.9101C146.334 30.7189 145.339 31.0426 144.658 31.7657L137.996 38.9212C137.192 38.8323 136.382 38.7509 135.574 38.6846L130.426 30.3554C129.906 29.513 128.984 29 127.985 29C126.986 29 126.074 29.513 125.563 30.3554L120.415 38.6846C119.605 38.7509 118.795 38.8323 117.993 38.9212L111.332 31.7657C110.657 31.0426 109.654 30.7189 108.682 30.9101C107.708 31.105 106.905 31.7865 106.562 32.7179L103.156 41.861C102.365 42.0882 101.582 42.3286 100.81 42.5747L92.8995 36.8768C92.0953 36.2956 91.0469 36.1726 90.1366 36.5549C89.2226 36.9335 88.566 37.7627 88.4069 38.7319L86.8362 48.3673C86.1096 48.744 85.3904 49.132 84.6789 49.5277L75.8034 45.4766C74.9007 45.064 73.8543 45.1491 73.0216 45.702C72.1965 46.2509 71.7139 47.1917 71.7517 48.1818L72.0924 57.9686C71.4604 58.474 70.8339 58.9907 70.2151 59.5132L60.6962 57.2605C59.7291 57.0353 58.7091 57.3231 58.009 58.0235C57.305 58.7258 57.0193 59.7385 57.2463 60.7115L59.4793 70.2333C58.9589 70.8504 58.4443 71.4751 57.9389 72.1073L48.1551 71.7666C47.1692 71.7383 46.2248 72.2114 45.676 73.0369C45.1234 73.8584 45.0402 74.9109 45.4508 75.8196L49.5007 84.7166C49.107 85.4303 48.7172 86.1496 48.3406 86.8747L38.7082 88.442C37.7297 88.6011 36.9047 89.256 36.5319 90.1723C36.1534 91.0904 36.2763 92.141 36.8536 92.9361L42.5498 100.849C42.3018 101.63 42.0615 102.416 41.8344 103.215L32.6941 106.623C31.7667 106.969 31.0835 107.772 30.8905 108.742C30.6975 109.716 31.0211 110.711 31.7459 111.393L38.8993 118.056C38.8104 118.861 38.7309 119.671 38.6627 120.479L30.355 125.628C29.5129 126.149 29 127.068 29 128.07C29 129.071 29.5129 129.982 30.355 130.494L38.6627 135.642C38.7309 136.453 38.8104 137.261 38.8993 138.065L31.7459 144.729C31.0211 145.404 30.6975 146.408 30.8905 147.378C31.0835 148.354 31.7667 149.154 32.6941 149.499L41.8344 152.906C42.0615 153.698 42.3018 154.483 42.5498 155.273L36.8536 163.185C36.2745 163.992 36.1515 165.039 36.5319 165.949C36.9122 166.867 37.7392 167.522 38.7271 167.679L48.3595 169.246C48.7361 169.977 49.1221 170.696 49.5196 171.405L45.4697 180.283C45.0573 181.185 45.1424 182.232 45.695 183.065C46.2476 183.892 47.1881 184.376 48.1741 184.335L57.9389 183.993C58.448 184.629 58.9609 185.251 59.4832 185.871L57.2501 195.393C57.023 196.358 57.3088 197.362 58.0128 198.062C58.7111 198.768 59.7273 199.05 60.7 198.823L70.2189 196.589C70.8377 197.115 71.4641 197.626 72.0962 198.13L71.7555 207.917C71.7177 208.907 72.2003 209.848 73.0253 210.396C73.8467 210.947 74.8989 211.031 75.8072 210.618L84.6827 206.567C85.3981 206.965 86.1172 207.35 86.8401 207.728L88.4107 217.363C88.5697 218.343 89.2245 219.172 90.1405 219.559C91.0544 219.939 92.1085 219.816 92.9034 219.239L100.814 213.541C101.595 213.789 102.38 214.032 103.179 214.258L106.585 223.401C106.932 224.329 107.734 225.017 108.705 225.206C109.677 225.402 110.673 225.077 111.355 224.35L118.016 217.194C118.82 217.287 119.63 217.365 120.438 217.437L125.586 225.747C126.104 226.586 127.025 227.103 128.008 227.103C128.99 227.103 129.92 226.588 130.449 225.747L135.597 217.437C136.407 217.365 137.215 217.287 138.019 217.194L144.68 224.35C145.356 225.077 146.359 225.402 147.33 225.206C148.304 225.015 149.106 224.329 149.449 223.401L152.856 214.258C153.646 214.032 154.432 213.789 155.221 213.541L163.131 219.239C163.935 219.816 164.984 219.939 165.894 219.559C166.81 219.182 167.465 218.351 167.624 217.363L169.195 207.728C169.922 207.35 170.64 206.959 171.352 206.567L180.228 210.618C181.13 211.031 182.176 210.947 183.009 210.396C183.834 209.844 184.315 208.907 184.279 207.917L183.939 198.13C184.571 197.624 185.197 197.115 185.814 196.589L195.332 198.823C196.3 199.05 197.319 198.768 198.02 198.062C198.724 197.36 199.01 196.35 198.783 195.393L196.549 185.871C197.072 185.251 197.587 184.629 198.09 183.993L207.874 184.335C208.859 184.376 209.804 183.892 210.352 183.065C210.906 182.24 210.991 181.189 210.576 180.283L206.527 171.405C206.922 170.688 207.31 169.967 207.685 169.246L217.317 167.679C218.297 167.522 219.122 166.867 219.493 165.949C219.871 165.035 219.753 163.981 219.171 163.185L213.475 155.273C213.722 154.49 213.961 153.705 214.191 152.906L223.331 149.499C224.261 149.15 224.945 148.35 225.135 147.378C225.331 146.406 225.006 145.41 224.28 144.729L217.126 138.065C217.213 137.261 217.292 136.451 217.362 135.642L225.671 130.494C226.512 129.974 227.025 129.052 227.025 128.07C227.025 127.088 226.514 126.158 225.672 125.628H225.613ZM169.976 194.723C166.797 194.038 164.791 190.899 165.472 187.719C166.151 184.538 169.276 182.513 172.455 183.194C175.635 183.874 177.659 187.018 176.978 190.198C176.297 193.379 173.174 195.404 169.995 194.723H169.976ZM167.156 175.604C164.261 174.983 161.404 176.826 160.798 179.73L157.846 193.511C148.743 197.638 138.543 199.947 127.945 199.947C117.045 199.947 106.751 197.543 97.4774 193.227L94.5251 179.446C93.9044 176.55 91.0621 174.694 88.1666 175.319L75.9983 177.931C73.7464 175.604 71.6458 173.123 69.7155 170.511H128.948C129.619 170.511 130.065 170.39 130.065 169.78V148.768C130.065 148.159 129.619 148.038 128.948 148.038H111.633V134.768H130.348C132.057 134.768 139.489 135.256 141.855 144.762C142.598 147.677 144.239 157.181 145.356 160.228C146.469 163.636 150.995 170.451 155.821 170.451H185.343C185.677 170.451 186.035 170.412 186.412 170.345C184.368 173.127 182.116 175.758 179.713 178.22L167.26 175.55L167.156 175.604ZM85.2145 194.439C82.0352 195.124 78.9126 193.099 78.2314 189.914C77.552 186.734 79.5713 183.591 82.7543 182.91C85.9336 182.23 89.0561 184.256 89.7374 187.435C90.4167 190.615 88.3957 193.757 85.2145 194.439ZM62.6946 103.385C64.0117 106.357 62.6719 109.841 59.7046 111.165C56.7335 112.485 53.2704 111.143 51.9457 108.175C50.621 105.206 51.9683 101.719 54.9357 100.394C57.9068 99.0769 61.3699 100.417 62.6946 103.385ZM55.7873 119.741L68.4665 114.1C71.1726 112.898 72.4027 109.727 71.1916 107.02L68.5801 101.114H78.837V147.303H58.2096C56.4136 140.98 55.4467 134.317 55.4467 127.427C55.4467 124.795 55.5885 122.202 55.861 119.646L55.7873 119.741ZM111.425 115.254V101.625H135.837C137.099 101.625 144.75 103.084 144.75 108.8C144.75 113.55 138.883 115.254 134.058 115.254H111.349H111.425ZM200.179 127.521C200.179 129.331 200.113 131.118 199.981 132.898H192.543C191.799 132.898 191.5 133.386 191.5 134.114V137.521C191.5 145.548 186.978 147.309 183.003 147.744C179.219 148.17 175.037 146.162 174.526 143.844C172.292 131.294 168.583 128.624 162.716 123.968C170.003 119.349 177.572 112.515 177.572 103.334C177.572 93.4718 170.817 87.2627 166.218 84.215C159.746 79.9558 152.592 79.1039 150.662 79.1039H73.8296C84.2568 67.4809 98.4312 59.2274 114.327 56.1986L123.393 65.7014C125.436 67.8406 128.823 67.9352 130.981 65.8757L141.124 56.1834C162.319 60.1398 180.297 73.3529 190.705 91.5825L183.761 107.256C182.563 109.964 183.785 113.144 186.485 114.337L199.846 120.28C200.077 122.646 200.198 125.051 200.198 127.473L200.179 127.521ZM123.347 48.2045C125.694 45.9518 129.422 46.0465 131.654 48.3956C133.888 50.743 133.812 54.4722 131.459 56.7249C129.113 58.9776 125.385 58.8829 123.152 56.5318C120.919 54.1844 120.995 50.4553 123.347 48.2026V48.2045ZM192.231 103.67C193.546 100.697 197.018 99.3533 199.99 100.678C202.961 101.996 204.305 105.486 202.98 108.459C201.665 111.431 198.192 112.775 195.221 111.449C192.25 110.132 190.906 106.641 192.231 103.67Z" fill="#CE422B"/>
</svg>

		</g>
		
		<g transform="translate(2400, 0)">
            
			<svg width="256" height="256" viewBox="0 0 256 256" fill="none" xmlns="http://www.w3.org/2000/svg">
<rect width="256" height="256" rx="60" fill="#394AAB"/>
<path d="M134.001 33C169.144 33 199.828 52.0863 216.262 80.4561L216.102 80.183L174.753 103.991C166.607 90.1977 151.672 80.8892 134.54 80.6975L134.001 80.6945C107.875 80.6945 86.6945 101.874 86.6945 127.999C86.6945 136.543 88.9723 144.552 92.9335 151.469C101.088 165.704 116.416 175.306 134.001 175.306C151.693 175.306 167.109 165.582 175.222 151.195L175.025 151.54L216.311 175.458C200.057 203.588 169.794 222.615 135.059 222.994L134.001 223C98.746 223 67.9753 203.796 51.582 175.276C43.5791 161.353 39 145.212 39 127.999C39 75.5334 81.5323 33 134.001 33Z" fill="white"/>
</svg>

		</g>
		
		<g transform="translate(2700, 0)">
            
			<svg xmlns="http://www.w3.org/2000/svg" width="256" height="256" fill="none" viewBox="0 0 256 256">
<rect width="256" height="256" fill="#00599C" rx="60"/>
<path fill="#fff" d="M110.759 210.517C65.1254 210.517 28 173.392 28 127.759C28 82.1254 65.1254 45 110.759 45C140.204 45 167.667 60.8458 182.427 86.3533L146.611 107.079C139.224 94.3111 125.485 86.3793 110.759 86.3793C87.9416 86.3793 69.3793 104.942 69.3793 127.759C69.3793 150.575 87.9416 169.138 110.759 169.138C125.486 169.138 139.225 161.206 146.613 148.436L182.429 169.161C167.669 194.671 140.206 210.517 110.759 210.517Z"/>
<path fill="#fff" d="M193.517 123.161H184.321V113.965H175.127V123.161H165.931V132.356H175.127V141.552H184.321V132.356H193.517V123.161Z"/>
<path fill="#fff" d="M228 123.161H218.804V113.965H209.61V123.161H200.414V132.356H209.61V141.552H218.804V132.356H228V123.161Z"/>
</svg>

		</g>
		</svg>