
            <svg width="554" height="48" viewBox="0 0 2956 256" fill="none" xmlns="http://www.w3.org/2000/svg" xmlns:xlink="http://www.w3.org/1999/xlink" version="1.1">
        
		<g transform="translate(0, 0)">
            
			<svg width="256" height="256" viewBox="0 0 256 256" fill="none" xmlns="http://www.w3.org/2000/svg" id="neovim">
<style>
#neovim {
    rect {fill: #242938}

    @media (prefers-color-scheme: light) {
        rect {fill: #F4F2ED}
    }
}
</style>
<rect width="256" height="256" rx="60" fill="#242938"/>
<path fill-rule="evenodd" clip-rule="evenodd" d="M46 71.0063L88.5954 28V227.957L46 185.45V71.0063Z" fill="url(#paint0_linear_306_17)"/>
<path fill-rule="evenodd" clip-rule="evenodd" d="M210.584 71.4104L167.406 28.0225L168.282 227.958L210.878 185.45L210.584 71.4104Z" fill="url(#paint1_linear_306_17)"/>
<path fill-rule="evenodd" clip-rule="evenodd" d="M88.5672 28.0332L199.309 197.012L168.32 228L57.5195 59.3947L88.5672 28.0332Z" fill="url(#paint2_linear_306_17)"/>
<path fill-rule="evenodd" clip-rule="evenodd" d="M88.6046 106.416L88.5462 113.072L54.3527 62.5927L57.5193 59.3677L88.6046 106.416Z" fill="black" fill-opacity="0.13"/>
<defs>
<linearGradient id="paint0_linear_306_17" x1="67.2972" y1="28" x2="67.2972" y2="227.958" gradientUnits="userSpaceOnUse">
<stop stop-color="#16B0ED" stop-opacity="0.8"/>
<stop offset="1" stop-color="#0F59B2" stop-opacity="0.837"/>
</linearGradient>
<linearGradient id="paint1_linear_306_17" x1="189.14" y1="28.0225" x2="189.14" y2="227.957" gradientUnits="userSpaceOnUse">
<stop stop-color="#7DB643"/>
<stop offset="1" stop-color="#367533"/>
</linearGradient>
<linearGradient id="paint2_linear_306_17" x1="128.414" y1="28.0332" x2="128.414" y2="228.01" gradientUnits="userSpaceOnUse">
<stop stop-color="#88C649" stop-opacity="0.8"/>
<stop offset="1" stop-color="#439240" stop-opacity="0.84"/>
</linearGradient>
</defs>
</svg>

		</g>
		
		<g transform="translate(300, 0)">
            
			<svg xmlns="http://www.w3.org/2000/svg" width="256" height="256" fill="none" viewBox="0 0 256 256" id="vscode">
<style>
#vscode {
    rect {fill: #242938}

    @media (prefers-color-scheme: light) {
        rect {fill: #F4F2ED}
    }
}
</style>
<rect width="256" height="256" fill="#242938" rx="60"/>
<path fill="#2489CA" d="M33.7158 100.208C33.7158 100.208 28.9814 96.795 34.6627 92.2381L47.8994 80.402C47.8994 80.402 51.6869 76.4172 55.6915 79.8891L177.84 172.368V216.714C177.84 216.714 177.781 223.678 168.844 222.908L33.7158 100.208Z"/>
<path fill="#1070B3" d="M65.1997 128.792L33.7157 157.415C33.7157 157.415 30.4805 159.822 33.7157 164.123L48.3333 177.418C48.3333 177.418 51.8052 181.147 56.9341 176.905L90.3119 151.596L65.1997 128.792Z"/>
<path fill="#0877B9" d="M120.474 129.029L178.215 84.9391L177.84 40.83C177.84 40.83 175.374 31.2033 167.148 36.2139L90.312 106.145L120.474 129.029Z"/>
<path fill="#3C99D4" d="M168.844 222.968C172.198 226.4 176.262 225.276 176.262 225.276L221.259 203.103C227.019 199.177 226.21 194.305 226.21 194.305V61.8982C226.21 56.0788 220.252 54.0667 220.252 54.0667L181.253 35.267C172.731 30 167.148 36.2139 167.148 36.2139C167.148 36.2139 174.328 31.0455 177.84 40.83V215.905C177.84 217.109 177.583 218.292 177.071 219.358C176.045 221.429 173.816 223.362 168.47 222.553L168.844 222.968Z"/>
</svg>

		</g>
		
		<g transform="translate(600, 0)">
            
			<svg width="256" height="256" viewBox="0 0 256 256" fill="none" xmlns="http://www.w3.org/2000/svg" id="datagrip">
<style>
#datagrip {
    path.rect {fill: #242938}

    @media (prefers-color-scheme: light) {
        path.rect {fill: #F4F2ED}
    }
}
</style>
<g id="DataGrip">
<path id="Vector" d="M196 0H60C26.8629 0 0 26.8629 0 60V196C0 229.137 26.8629 256 60 256H196C229.137 256 256 229.137 256 196V60C256 26.8629 229.137 0 196 0Z" fill="#242938" class="rect"/>
<g id="Group 18">
<path id="Vector_2" d="M213.507 60.1636L225.999 137.859L203.148 153.398L213.507 60.1636Z" fill="url(#paint0_linear_8_85)"/>
<path id="Vector_3" d="M225.999 137.859L203.148 153.398L207.109 116.835L225.999 137.859Z" fill="url(#paint1_linear_8_85)"/>
<path id="Vector_4" d="M213.508 60.164L143.734 30L124.234 46.1484L213.508 60.164Z" fill="url(#paint2_linear_8_85)"/>
<path id="Vector_5" d="M158.664 51.9374L143.734 30L124.234 46.1484L158.664 51.9374Z" fill="url(#paint3_linear_8_85)"/>
<path id="Vector_6" d="M162.625 225L54.4614 138.774L32.8286 203.977L162.625 225Z" fill="url(#paint4_linear_8_85)"/>
<path id="Vector_7" d="M162.625 224.999L75.7894 186.914L32.8286 203.976L162.625 224.999Z" fill="url(#paint5_linear_8_85)"/>
<path id="Vector_8" d="M177.859 170.46L31 119.882L162.625 224.999L177.859 170.46Z" fill="url(#paint6_linear_8_85)"/>
<path id="Vector_9" d="M177.859 170.46L168.108 167.109L153.788 185.695L162.624 224.999L177.859 170.46Z" fill="url(#paint7_linear_8_85)"/>
<path id="Vector_10" d="M153.789 185.695L31 119.882L143.429 209.765L162.625 224.999L153.789 185.695Z" fill="url(#paint8_linear_8_85)"/>
<path id="Vector_11" d="M31 31.5234V119.883L200.101 178.078L213.507 60.164L31 31.5234Z" fill="url(#paint9_linear_8_85)"/>
<path id="Vector_12" d="M31 31.5234V119.883L200.101 178.078L180.296 89.1092L31 31.5234Z" fill="url(#paint10_linear_8_85)"/>
<path id="Vector_13" d="M31 31.5234V119.883L71.5233 95.5076L31 31.5234Z" fill="url(#paint11_linear_8_85)"/>
<path id="Vector_14" d="M75.7894 186.914L180.906 89.7188L70.0004 96.4219L32.8286 203.976L75.7894 186.914Z" fill="url(#paint12_linear_8_85)"/>
<path id="Vector_15" d="M75.7894 186.914L79.4457 158.274L54.4614 138.774L32.8286 203.977L75.7894 186.914Z" fill="url(#paint13_linear_8_85)"/>
<path id="Vector_16" d="M75.7894 186.914L79.4457 158.274L54.4614 138.774L32.8286 203.977L75.7894 186.914Z" fill="url(#paint14_linear_8_85)"/>
<path id="Vector_17" d="M213.507 60.1636L200.101 178.077L180.296 89.1088L213.507 60.1636Z" fill="url(#paint15_linear_8_85)"/>
<path id="Vector_18" d="M200.102 178.078L203.148 153.398L195.836 158.578L200.102 178.078Z" fill="url(#paint16_linear_8_85)"/>
<path id="Vector_19" d="M200.101 178.078L177.859 170.461L195.836 158.578L200.101 178.078Z" fill="url(#paint17_linear_8_85)"/>
<path id="Vector_20" d="M213.507 60.1635L165.367 102.82L69.0859 96.1166L124.234 46.1479L213.507 60.1635Z" fill="url(#paint18_linear_8_85)"/>
<path id="Vector_21" d="M180.296 89.1092L213.507 60.164L31 31.5234L180.296 89.1092Z" fill="url(#paint19_linear_8_85)"/>
<path id="Vector_22" d="M180.296 89.1092L213.507 60.164L31 31.5234L180.296 89.1092Z" fill="url(#paint20_linear_8_85)"/>
<path id="Vector_23" d="M107.782 61.0776L180.297 89.1088L182.734 86.976L158.359 51.6323L124.235 46.1479L107.782 61.0776Z" fill="url(#paint21_linear_8_85)"/>
<path id="Vector_24" d="M189.437 66.5625H67.5625V188.437H189.437V66.5625Z" fill="url(#paint22_linear_8_85)"/>
<g id="Group" opacity="0.5">
<path id="Vector_25" opacity="0.3" d="M67.5625 149.438V188.437H116.617L67.5625 149.438Z" fill="url(#paint23_linear_8_85)"/>
<path id="Vector_26" opacity="0.3" d="M67.5625 149.438V188.437H72.7422L75.789 187.219L93.9179 170.461L67.5625 149.438Z" fill="url(#paint24_linear_8_85)"/>
<path id="Vector_27" opacity="0.3" d="M67.5625 149.437L116.617 188.437H172.984L177.859 170.765L67.5625 132.832V149.437Z" fill="url(#paint25_linear_8_85)"/>
<path id="Vector_28" opacity="0.3" d="M153.789 186L154.398 188.437H172.984L177.859 170.766L148.609 160.863L153.789 186Z" fill="url(#paint26_linear_8_85)"/>
<path id="Vector_29" opacity="0.3" d="M189.437 81.4917L180.296 89.4136L189.437 130.089V81.4917Z" fill="url(#paint27_linear_8_85)"/>
<path id="Vector_30" opacity="0.3" d="M189.437 66.5625H121.339L180.296 89.414L189.437 81.4921V66.5625Z" fill="url(#paint28_linear_8_85)"/>
<path id="Vector_31" opacity="0.3" d="M189.437 174.726V130.09L180.297 89.414L121.34 66.5625H67.5625V132.832L189.437 174.726Z" fill="url(#paint29_linear_8_85)"/>
</g>
<path id="Vector_32" d="M128.5 165.434H82.7969V173.051H128.5V165.434Z" fill="white"/>
<path id="Vector_33" d="M81.4248 81.8755H99.1862C113.506 81.8755 123.419 91.6511 123.419 104.594V104.731C123.419 117.536 113.506 127.587 99.1862 127.587H81.4248V81.8755ZM91.4758 90.9628V118.5H99.1862C107.447 118.5 112.955 112.993 112.955 104.869V104.731C112.955 96.608 107.447 90.9628 99.1862 90.9628H91.4758Z" fill="white"/>
<path id="Vector_34" d="M127.496 104.869C127.496 91.7884 137.547 81.1865 151.453 81.1865C159.714 81.1865 164.671 83.3894 169.352 87.3823L163.019 94.9553C159.439 92.0638 156.41 90.2738 151.04 90.2738C143.742 90.2738 137.96 96.745 137.96 104.455V104.731C137.96 113.13 143.742 119.188 151.728 119.188C155.446 119.188 158.613 118.224 161.229 116.434V109.963H151.178V101.289H171.004V121.116C166.323 125.109 159.852 128.413 151.453 128.413C137.271 128.275 127.496 118.362 127.496 104.869Z" fill="white"/>
</g>
</g>
<defs>
<linearGradient id="paint0_linear_8_85" x1="209.641" y1="103.348" x2="215.343" y2="152.992" gradientUnits="userSpaceOnUse">
<stop offset="0.1599" stop-color="#21D789"/>
<stop offset="0.5402" stop-color="#419FBC"/>
<stop offset="1" stop-color="#6B57FF"/>
</linearGradient>
<linearGradient id="paint1_linear_8_85" x1="184.627" y1="127.988" x2="258.731" y2="154.081" gradientUnits="userSpaceOnUse">
<stop offset="0.0212475" stop-color="#B74AF7" stop-opacity="0"/>
<stop offset="0.744" stop-color="#8053FD" stop-opacity="0.7385"/>
<stop offset="1" stop-color="#6B57FF"/>
</linearGradient>
<linearGradient id="paint2_linear_8_85" x1="157.656" y1="82.0496" x2="172.08" y2="45.1521" gradientUnits="userSpaceOnUse">
<stop stop-color="#6B57FF"/>
<stop offset="0.9516" stop-color="#21D789"/>
</linearGradient>
<linearGradient id="paint3_linear_8_85" x1="157.907" y1="36.2388" x2="134.519" y2="52.6272" gradientUnits="userSpaceOnUse">
<stop stop-color="#00FF6A"/>
<stop offset="0.9516" stop-color="#21D789" stop-opacity="0"/>
</linearGradient>
<linearGradient id="paint4_linear_8_85" x1="162.319" y1="252.731" x2="25.3553" y2="158.932" gradientUnits="userSpaceOnUse">
<stop offset="0.09839" stop-color="#6B57FF"/>
<stop offset="0.1176" stop-color="#685CFB"/>
<stop offset="0.3447" stop-color="#4A91CA"/>
<stop offset="0.5417" stop-color="#34B7A7"/>
<stop offset="0.6991" stop-color="#26CE91"/>
<stop offset="0.7971" stop-color="#21D789"/>
</linearGradient>
<linearGradient id="paint5_linear_8_85" x1="92.1106" y1="149.453" x2="100.142" y2="242.501" gradientUnits="userSpaceOnUse">
<stop offset="0.09839" stop-color="#6B57FF"/>
<stop offset="0.1176" stop-color="#685CFB"/>
<stop offset="0.3447" stop-color="#4A91CA"/>
<stop offset="0.5417" stop-color="#34B7A7"/>
<stop offset="0.6991" stop-color="#26CE91"/>
<stop offset="0.7971" stop-color="#21D789"/>
</linearGradient>
<linearGradient id="paint6_linear_8_85" x1="43.1469" y1="127.521" x2="214.02" y2="221.866" gradientUnits="userSpaceOnUse">
<stop offset="0.0752688" stop-color="#21D789"/>
<stop offset="0.8874" stop-color="#6B57FF"/>
</linearGradient>
<linearGradient id="paint7_linear_8_85" x1="153.782" y1="196.079" x2="177.855" y2="196.079" gradientUnits="userSpaceOnUse">
<stop offset="0.0266187" stop-color="#4F46C6"/>
<stop offset="1" stop-color="#6B57FF"/>
</linearGradient>
<linearGradient id="paint8_linear_8_85" x1="37.1068" y1="138.461" x2="207.98" y2="232.806" gradientUnits="userSpaceOnUse">
<stop offset="0.0266187" stop-color="#21D789"/>
<stop offset="0.6999" stop-color="#685CFA"/>
<stop offset="1" stop-color="#6B57FF"/>
</linearGradient>
<linearGradient id="paint9_linear_8_85" x1="21.5294" y1="78.9083" x2="189.078" y2="115.359" gradientUnits="userSpaceOnUse">
<stop offset="0.2422" stop-color="#21D789"/>
<stop offset="0.4465" stop-color="#59A3B2"/>
<stop offset="0.7668" stop-color="#B74AF7"/>
<stop offset="1" stop-color="#FF45ED"/>
</linearGradient>
<linearGradient id="paint10_linear_8_85" x1="43.2265" y1="104.77" x2="202.414" y2="104.77" gradientUnits="userSpaceOnUse">
<stop offset="0.1308" stop-color="#21D789"/>
<stop offset="0.3487" stop-color="#59A3B2"/>
<stop offset="0.6901" stop-color="#B74AF7"/>
<stop offset="1" stop-color="#FF45ED"/>
</linearGradient>
<linearGradient id="paint11_linear_8_85" x1="33.9171" y1="75.6945" x2="71.8956" y2="75.6945" gradientUnits="userSpaceOnUse">
<stop offset="0.3086" stop-color="#56D789"/>
<stop offset="0.9587" stop-color="#8DFC77"/>
<stop offset="1" stop-color="#91FF76"/>
</linearGradient>
<linearGradient id="paint12_linear_8_85" x1="97.903" y1="262.306" x2="110.983" y2="91.3299" gradientUnits="userSpaceOnUse">
<stop stop-color="#21D789"/>
<stop offset="0.9961" stop-color="#6B57FF" stop-opacity="0"/>
</linearGradient>
<linearGradient id="paint13_linear_8_85" x1="46.1584" y1="137.953" x2="57.9016" y2="189.12" gradientUnits="userSpaceOnUse">
<stop offset="0.2061" stop-color="#6B57FF"/>
<stop offset="0.3273" stop-color="#6266F1"/>
<stop offset="0.5619" stop-color="#4B8FCC"/>
<stop offset="0.8839" stop-color="#26CF90"/>
<stop offset="0.9206" stop-color="#21D789"/>
</linearGradient>
<linearGradient id="paint14_linear_8_85" x1="31.4005" y1="161.919" x2="80.3756" y2="200.102" gradientUnits="userSpaceOnUse">
<stop offset="0.3086" stop-color="#56D789" stop-opacity="0"/>
<stop offset="0.9587" stop-color="#8DFC77" stop-opacity="0.9403"/>
<stop offset="1" stop-color="#91FF76"/>
</linearGradient>
<linearGradient id="paint15_linear_8_85" x1="180.33" y1="119.236" x2="213.564" y2="119.236" gradientUnits="userSpaceOnUse">
<stop offset="0.2609" stop-color="#B74AF7"/>
<stop offset="1" stop-color="#FF45ED"/>
</linearGradient>
<linearGradient id="paint16_linear_8_85" x1="207.008" y1="173.792" x2="196.631" y2="158.435" gradientUnits="userSpaceOnUse">
<stop stop-color="#FF72F1"/>
<stop offset="0.963" stop-color="#B74AF7"/>
</linearGradient>
<linearGradient id="paint17_linear_8_85" x1="208.257" y1="188.084" x2="188.335" y2="166.087" gradientUnits="userSpaceOnUse">
<stop offset="0.668" stop-color="#FF72F1"/>
<stop offset="1" stop-color="#B74AF7"/>
</linearGradient>
<linearGradient id="paint18_linear_8_85" x1="101.428" y1="11.5456" x2="152.884" y2="97.4751" gradientUnits="userSpaceOnUse">
<stop offset="0.1625" stop-color="#B74AF7" stop-opacity="0.5"/>
<stop offset="0.9989" stop-color="#00FF6A" stop-opacity="0"/>
</linearGradient>
<linearGradient id="paint19_linear_8_85" x1="179.35" y1="115.058" x2="140.336" y2="67.7434" gradientUnits="userSpaceOnUse">
<stop offset="0.2973" stop-color="#FF4FFF" stop-opacity="0.96"/>
<stop offset="0.9989" stop-color="#FF45ED" stop-opacity="0"/>
</linearGradient>
<linearGradient id="paint20_linear_8_85" x1="118.152" y1="68.9779" x2="122.302" y2="45.7355" gradientUnits="userSpaceOnUse">
<stop stop-color="#FF4FFF" stop-opacity="0.96"/>
<stop offset="0.9928" stop-color="#FF45ED" stop-opacity="0"/>
</linearGradient>
<linearGradient id="paint21_linear_8_85" x1="168.533" y1="47.1814" x2="149.105" y2="69.6326" gradientUnits="userSpaceOnUse">
<stop offset="0.1209" stop-color="#A326F7"/>
<stop offset="0.9516" stop-color="#B74AF7" stop-opacity="0"/>
</linearGradient>
<linearGradient id="paint22_linear_8_85" x1="65.9254" y1="64.9254" x2="181.317" y2="180.317" gradientUnits="userSpaceOnUse">
<stop offset="0.0284813" stop-color="#007E67"/>
<stop offset="0.1121" stop-color="#005344"/>
<stop offset="0.1976" stop-color="#002F27"/>
<stop offset="0.2776" stop-color="#001511"/>
<stop offset="0.3494" stop-color="#000605"/>
<stop offset="0.4058"/>
<stop offset="0.9138"/>
</linearGradient>
<linearGradient id="paint23_linear_8_85" x1="115.733" y1="201.903" x2="53.7759" y2="159.472" gradientUnits="userSpaceOnUse">
<stop offset="0.09839" stop-color="#6B57FF"/>
<stop offset="0.1176" stop-color="#685CFB"/>
<stop offset="0.3447" stop-color="#4A91CA"/>
<stop offset="0.5417" stop-color="#34B7A7"/>
<stop offset="0.6991" stop-color="#26CE91"/>
<stop offset="0.7971" stop-color="#21D789"/>
</linearGradient>
<linearGradient id="paint24_linear_8_85" x1="77.2445" y1="205.717" x2="81.3112" y2="152.561" gradientUnits="userSpaceOnUse">
<stop offset="0.0752688" stop-color="#21D789"/>
<stop offset="0.8874" stop-color="#6B57FF"/>
</linearGradient>
<linearGradient id="paint25_linear_8_85" x1="75.3442" y1="139.898" x2="197.91" y2="207.57" gradientUnits="userSpaceOnUse">
<stop stop-color="#34B7A7"/>
<stop offset="0.8874" stop-color="#000069"/>
</linearGradient>
<linearGradient id="paint26_linear_8_85" x1="148.569" y1="174.616" x2="177.856" y2="174.616" gradientUnits="userSpaceOnUse">
<stop offset="0.0266187" stop-color="#4F46C6"/>
<stop offset="1" stop-color="#1F2C61"/>
</linearGradient>
<linearGradient id="paint27_linear_8_85" x1="180.33" y1="105.799" x2="189.437" y2="105.799" gradientUnits="userSpaceOnUse">
<stop offset="0.2609" stop-color="#B74AF7"/>
<stop offset="1" stop-color="#FF45ED"/>
</linearGradient>
<linearGradient id="paint28_linear_8_85" x1="154.598" y1="78.4197" x2="157.517" y2="62.0708" gradientUnits="userSpaceOnUse">
<stop stop-color="#FF4FFF"/>
<stop offset="0.9928" stop-color="#FF75FF"/>
</linearGradient>
<linearGradient id="paint29_linear_8_85" x1="89.3348" y1="69.2599" x2="171.861" y2="169.022" gradientUnits="userSpaceOnUse">
<stop stop-color="#20D185"/>
<stop offset="0.4429" stop-color="#198767"/>
<stop offset="0.844" stop-color="#12414A"/>
</linearGradient>
</defs>
</svg>

		</g>
		
		<g transform="translate(900, 0)">
            
			<svg width="256" height="256" viewBox="0 0 256 256" fill="none" xmlns="http://www.w3.org/2000/svg" id="alacritty">
<style>
#alacritty {
    rect {fill: #242938}

    @media (prefers-color-scheme: light) {
        rect {fill: #F4F2ED}
    }
}
</style>
<rect width="256" height="256" rx="60" fill="#242938"/>
<path fill-rule="evenodd" clip-rule="evenodd" d="M112.957 146.697L108.323 157.924C120.775 196.268 120.775 196.268 127.727 229.716C134.678 196.268 134.678 196.268 147.13 157.924L142.496 146.697L127.727 110.912L112.957 146.697Z" fill="#069EFE"/>
<path fill-rule="evenodd" clip-rule="evenodd" d="M111.383 27H144.071L216.454 206.643H186.1L127.727 69.4371L69.354 206.643H39L111.383 27Z" fill="url(#gradient)"/>
<path fill-rule="evenodd" clip-rule="evenodd" d="M118.045 134.514L115 141.891C123.182 167.087 123.182 167.087 127.75 189.066C132.318 167.087 132.318 167.087 140.5 141.891L137.455 134.514L127.75 111L118.045 134.514Z" fill="white"/>
<linearGradient id="gradient" x1="128.019" y1="27" x2="127.749" y2="221.239" gradientUnits="userSpaceOnUse">
<stop stop-color="#EC2802"/>
<stop offset="1" stop-color="#FCB200"/>
</linearGradient>
</svg>

		</g>
		
		<g transform="translate(1200, 0)">
            
			<svg xmlns="http://www.w3.org/2000/svg" width="256" height="256" fill="none" viewBox="0 0 256 256" id="bash">
<style>
#bash {
    rect {fill: #242938}

    @media (prefers-color-scheme: light) {
        rect {fill: #F4F2ED}
        path:nth-child(2) {fill: #242938}
        path:nth-child(3) {fill: #fff}
        path:nth-child(4) {fill: #3E474A}
        path:nth-child(6) {fill: #fff}
    }
}
</style>
<rect width="256" height="256" fill="#242938" rx="60"/>
<path fill="#242938" fill-rule="evenodd" d="M203.819 68.8354L140.679 31.3552C133.143 26.8816 123.854 26.8816 116.318 31.3552L53.1774 68.8354C45.6434 73.3091 41 81.575 41 90.5223V165.483C41 174.428 45.6434 182.698 53.1796 187.172L116.32 224.645C120.088 226.883 124.29 227.999 128.499 227.999C132.706 227.999 136.909 226.883 140.677 224.645L203.817 187.172C211.353 182.698 215.999 174.428 215.999 165.483V90.5223C215.999 81.575 211.353 73.3091 203.819 68.8354Z" clip-rule="evenodd"/>
<path fill="#fff" fill-rule="evenodd" d="M118.527 220.808L55.3866 183.334C49.2108 179.668 45.3744 172.828 45.3744 165.482V90.5234C45.3744 83.1768 49.2109 76.3374 55.3844 72.673L118.527 35.1928C121.554 33.3958 125.002 32.4455 128.499 32.4455C131.994 32.4455 135.442 33.3958 138.472 35.1928L201.612 72.673C206.816 75.7619 210.326 81.1109 211.313 87.1103C209.219 82.6411 204.496 81.4262 198.993 84.6409L139.259 121.537C131.811 125.891 126.319 130.777 126.314 139.758V213.362C126.31 218.74 128.482 222.223 131.818 223.233C130.722 223.423 129.617 223.555 128.499 223.555C125.002 223.555 121.554 222.605 118.527 220.808ZM203.819 68.8343L140.679 31.3563C136.911 29.1184 132.704 28.0005 128.499 28.0005C124.293 28.0005 120.086 29.1184 116.318 31.3563L53.1774 68.8343C45.6434 73.308 41 81.5761 41 90.5234V165.482C41 174.427 45.6434 182.697 53.1796 187.171L116.32 224.646C120.09 226.882 124.293 228 128.499 228C132.706 228 136.909 226.882 140.677 224.646L203.819 187.171C211.355 182.697 215.999 174.427 215.999 165.482V90.5234C215.999 81.5761 211.355 73.308 203.819 68.8343Z" clip-rule="evenodd"/>
<path fill="#47B353" fill-rule="evenodd" d="M187.267 172.729L171.545 182.139C171.128 182.382 170.822 182.655 170.819 183.156V187.27C170.819 187.773 171.157 187.982 171.573 187.737L187.539 178.034C187.955 177.791 188.019 177.326 188.022 176.825V173.196C188.022 172.696 187.684 172.486 187.267 172.729Z" clip-rule="evenodd"/>
<path fill="#242938" fill-rule="evenodd" d="M153.788 138.098C154.297 137.84 154.716 138.157 154.723 138.823L154.776 144.262C157.053 143.356 159.031 143.114 160.823 143.528C161.212 143.632 161.384 144.161 161.225 144.789L160.028 149.609C159.935 149.973 159.73 150.341 159.483 150.57C159.379 150.672 159.273 150.751 159.168 150.804C159.007 150.886 158.848 150.912 158.696 150.881C157.878 150.696 155.933 150.271 152.873 151.821C149.663 153.446 148.54 156.235 148.562 158.305C148.589 160.777 149.857 161.526 154.235 161.601C160.069 161.698 162.59 164.247 162.651 170.123C162.711 175.893 159.631 182.089 154.919 185.886L155.023 191.27C155.029 191.918 154.608 192.661 154.099 192.919L150.91 194.756C150.399 195.014 149.98 194.696 149.973 194.048L149.918 188.752C147.187 189.887 144.419 190.161 142.651 189.451C142.318 189.321 142.175 188.829 142.307 188.269L143.463 183.401C143.555 183.017 143.758 182.633 144.034 182.389C144.131 182.294 144.232 182.221 144.333 182.17C144.516 182.078 144.695 182.058 144.847 182.115C146.752 182.757 149.189 182.457 151.532 181.271C154.509 179.765 156.5 176.729 156.469 173.713C156.44 170.976 154.959 169.839 151.356 169.812C146.77 169.825 142.495 168.921 142.424 162.17C142.367 156.612 145.257 150.828 149.832 147.171L149.775 141.736C149.768 141.068 150.176 140.333 150.701 140.069L153.788 138.098Z" clip-rule="evenodd"/>
</svg>

		</g>
		
		<g transform="translate(1500, 0)">
            
			<svg width="256" height="256" viewBox="0 0 256 256" fill="none" xmlns="http://www.w3.org/2000/svg" id="tmux">
<style>
#tmux {
    rect {fill: #242938}

    @media (prefers-color-scheme: light) {
        rect {fill: #F4F2ED}
    }
}
</style>
<g clip-path="url(#clip0_667_2)">
<rect width="256" height="256" rx="60" fill="#242938"/>
<mask id="mask0_667_2" style="mask-type:alpha" maskUnits="userSpaceOnUse" x="0" y="0" width="256" height="234">
<path fill-rule="evenodd" clip-rule="evenodd" d="M132.8 111.951V0H123.2V233.498H132.8V121.547H256V111.951H132.8ZM0 24.0055C0 10.7505 10.7552 0 24 0H232C245.253 0 256 10.7553 256 24.0055V233.514H0V24.0055Z" fill="#3C3C3C"/>
</mask>
<g mask="url(#mask0_667_2)">
<path d="M196 0H60C26.8629 0 0 26.8629 0 60V196C0 229.137 26.8629 256 60 256H196C229.137 256 256 229.137 256 196V60C256 26.8629 229.137 0 196 0Z" fill="#3C3C3C"/>
</g>
<mask id="mask1_667_2" style="mask-type:alpha" maskUnits="userSpaceOnUse" x="0" y="0" width="256" height="256">
<path d="M196 0H60C26.8629 0 0 26.8629 0 60V196C0 229.137 26.8629 256 60 256H196C229.137 256 256 229.137 256 196V60C256 26.8629 229.137 0 196 0Z" fill="#242938"/>
</mask>
<g mask="url(#mask1_667_2)">
<path fill-rule="evenodd" clip-rule="evenodd" d="M0 185H256V231.742C256 245.098 245.245 255.919 232 255.919H24C10.7472 255.919 0 245.109 0 231.742V185ZM0 185H256V233.354H0V185Z" fill="#1BB91F"/>
</g>
</g>
</svg>
		</g>
		
		<g transform="translate(1800, 0)">
            
			<svg width="256" height="256" viewBox="0 0 256 256" fill="none" xmlns="http://www.w3.org/2000/svg">
<rect width="256" height="256" rx="60" fill="#FF6C37"/>
<path d="M169.061 88.6123L118.521 139.153L104.268 124.901C153.971 75.1986 158.882 79.5101 169.061 88.6123Z" fill="#EEEEEE"/>
<path d="M118.521 140.35C118.161 140.35 117.922 140.231 117.682 139.991L103.31 125.739C102.831 125.26 102.831 124.542 103.31 124.063C153.851 73.5211 159.12 78.3118 169.78 87.8932C170.02 88.1328 170.139 88.3724 170.139 88.7317C170.139 89.0911 170.02 89.3306 169.78 89.5694L119.239 139.991C119.12 140.231 118.76 140.35 118.521 140.35ZM105.945 124.901L118.521 137.476L167.265 88.7317C158.403 80.8266 152.414 78.4316 105.945 124.901Z" fill="#FF6C37"/>
<path d="M133.012 153.645L119.239 139.872L169.78 89.3315C183.314 102.984 163.073 125.141 133.012 153.645Z" fill="#EEEEEE"/>
<path d="M133.012 154.843C132.652 154.843 132.414 154.723 132.174 154.483L118.401 140.71C118.161 140.471 118.161 140.231 118.161 139.872C118.161 139.512 118.281 139.273 118.521 139.033L169.061 88.4927C169.54 88.0135 170.259 88.0135 170.738 88.4927C173.852 91.3668 175.529 95.4387 175.409 99.6305C175.17 112.924 160.079 129.811 133.97 154.483C133.611 154.723 133.251 154.843 133.012 154.843ZM120.916 139.872C128.58 147.656 131.815 150.771 133.012 151.968C153.133 132.806 172.654 113.164 172.774 99.6305C172.894 96.5168 171.697 93.4031 169.66 91.0074L120.916 139.872Z" fill="#FF6C37"/>
<path d="M104.508 125.26L114.688 135.44C114.927 135.68 114.927 135.919 114.688 136.159C114.568 136.279 114.568 136.279 114.449 136.279L93.3693 140.83C92.292 140.95 91.3337 140.231 91.0942 139.153C90.9744 138.554 91.214 137.956 91.5733 137.596L103.789 125.38C104.029 125.14 104.388 125.02 104.508 125.26Z" fill="#EEEEEE"/>
<path d="M93.01 142.028C91.214 142.028 89.8963 140.59 89.8963 138.793C89.8963 137.956 90.2557 137.117 90.8546 136.518L103.07 124.302C103.789 123.703 104.748 123.703 105.466 124.302L115.646 134.482C116.364 135.081 116.364 136.159 115.646 136.877C115.406 137.117 115.167 137.237 114.807 137.357L93.7287 141.908C93.4891 141.908 93.2495 142.028 93.01 142.028ZM104.149 126.577L92.4118 138.314C92.1723 138.554 92.0525 138.913 92.292 139.272C92.4118 139.632 92.7704 139.752 93.1298 139.632L112.891 135.32L104.149 126.577Z" fill="#FF6C37"/>
<path d="M195.769 60.5877C188.104 53.1625 175.768 53.4021 168.342 61.1867C160.917 68.9712 161.157 81.1871 168.941 88.6131C175.289 94.7207 184.871 95.7988 192.416 91.2476L178.762 77.5943L195.769 60.5877Z" fill="#EEEEEE"/>
<path d="M182.355 95.1996C170.978 95.1996 161.756 85.9776 161.756 74.6002C161.756 63.222 170.978 54 182.355 54C187.625 54 192.775 56.0364 196.607 59.749C196.847 59.9886 196.967 60.2281 196.967 60.5875C196.967 60.9469 196.847 61.1864 196.607 61.426L180.439 77.5941L193.134 90.2891C193.614 90.7683 193.614 91.487 193.134 91.9661C193.015 92.0859 193.015 92.0859 192.895 92.2057C189.781 94.1215 186.068 95.1996 182.355 95.1996ZM182.355 56.5155C172.295 56.5155 164.151 64.6595 164.271 74.72C164.271 84.7805 172.414 92.9244 182.475 92.8047C185.23 92.8047 187.984 92.2057 190.499 90.888L177.924 78.4326C177.684 78.193 177.565 77.9534 177.565 77.5941C177.565 77.2347 177.684 76.9951 177.924 76.7556L193.973 60.7073C190.739 57.953 186.667 56.5155 182.355 56.5155Z" fill="#FF6C37"/>
<path d="M196.128 60.9471L195.889 60.7075L178.762 77.5943L192.296 91.1279C193.614 90.2894 194.93 89.3319 196.009 88.2538C203.673 80.708 203.673 68.4921 196.128 60.9471Z" fill="#EEEEEE"/>
<path d="M192.416 92.4448C192.056 92.4448 191.817 92.325 191.577 92.0855L177.924 78.4321C177.684 78.1925 177.565 77.953 177.565 77.5936C177.565 77.2342 177.684 76.9947 177.924 76.7551L194.93 59.7485C195.41 59.2694 196.128 59.2694 196.607 59.7485L196.967 59.9881C204.991 68.0122 204.991 80.9469 197.087 89.0916C195.889 90.2887 194.571 91.3667 193.134 92.2053C192.775 92.325 192.536 92.4448 192.416 92.4448ZM180.439 77.5936L192.536 89.6897C193.494 89.0916 194.452 88.2531 195.17 87.5344C201.997 80.7073 202.356 69.5695 195.769 62.3838L180.439 77.5936Z" fill="#FF6C37"/>
<path d="M171.098 90.7674C168.223 87.8933 163.552 87.8933 160.678 90.7674L115.526 135.919L123.072 143.464L170.858 101.547C173.972 98.9113 174.211 94.2404 171.577 91.1267C171.337 91.007 171.217 90.8872 171.098 90.7674Z" fill="#EEEEEE"/>
<path d="M122.952 144.662C122.593 144.662 122.353 144.542 122.113 144.303L114.568 136.758C114.089 136.279 114.089 135.56 114.568 135.081L159.719 89.929C163.073 86.5758 168.462 86.5758 171.816 89.929C175.17 93.283 175.17 98.6719 171.816 102.026C171.697 102.146 171.577 102.265 171.457 102.385L123.67 144.303C123.551 144.542 123.311 144.662 122.952 144.662ZM117.203 135.919L123.072 141.788L170.02 100.588C172.654 98.4323 172.894 94.4801 170.738 91.8456C168.582 89.2111 164.63 88.9715 161.995 91.1269C161.876 91.2467 161.756 91.3664 161.516 91.4862L117.203 135.919Z" fill="#FF6C37"/>
<path d="M80.9139 187.3C80.4347 187.539 80.1951 188.018 80.3149 188.497L82.3513 197.121C82.8305 198.318 82.1117 199.756 80.7941 200.115C79.8358 200.474 78.7585 200.115 78.1596 199.397L64.9854 186.342L107.981 143.346L122.832 143.585L132.892 153.646C130.497 155.682 116.005 169.694 80.9139 187.3Z" fill="#EEEEEE"/>
<path d="M79.9556 201.311C78.9981 201.311 78.0398 200.952 77.4408 200.234L64.3864 187.179C64.1469 186.94 64.0271 186.7 64.0271 186.341C64.0271 185.982 64.1469 185.742 64.3864 185.502L107.382 142.507C107.622 142.267 107.981 142.147 108.221 142.147L123.072 142.387C123.431 142.387 123.67 142.507 123.909 142.746L133.97 152.806C134.21 153.046 134.329 153.405 134.329 153.764C134.329 154.124 134.21 154.363 133.85 154.603L133.012 155.322C120.317 166.459 103.07 177.598 81.6326 188.257L83.669 196.76C84.0275 198.317 83.3096 199.994 81.8722 200.832C81.1534 201.191 80.5545 201.311 79.9556 201.311ZM66.7814 186.341L79.1178 198.557C79.4764 199.156 80.1951 199.395 80.7941 199.036C81.393 198.677 81.6326 197.958 81.2732 197.359L79.2376 188.736C78.9981 187.658 79.4764 186.7 80.4347 186.221C101.633 175.562 118.76 164.544 131.335 153.645L122.473 144.782L108.7 144.542L66.7814 186.341Z" fill="#FF6C37"/>
<path d="M54.8051 196.641L65.1052 186.341L80.4347 201.671L56.0029 199.995C54.9249 199.875 54.2061 198.917 54.3259 197.838C54.3259 197.359 54.4457 196.88 54.8051 196.641Z" fill="#EEEEEE"/>
<path d="M80.4347 202.749L55.8831 201.072C54.0863 200.952 52.8884 199.396 53.0082 197.599C53.128 196.88 53.3676 196.162 53.9665 195.683L64.2666 185.383C64.7458 184.904 65.4645 184.904 65.9429 185.383L81.2732 200.713C81.6326 201.072 81.7524 201.551 81.5128 202.031C81.2732 202.51 80.9139 202.749 80.4347 202.749ZM65.1051 188.018L55.6435 197.479C55.2842 197.719 55.2842 198.318 55.6435 198.557C55.7633 198.677 55.8831 198.797 56.1227 198.797L77.321 200.234L65.1051 188.018Z" fill="#FF6C37"/>
<path d="M103.789 148.855C103.07 148.855 102.591 148.256 102.591 147.657C102.591 147.298 102.711 147.059 102.951 146.819L114.568 135.202C115.047 134.722 115.766 134.722 116.245 135.202L123.79 142.747C124.149 143.106 124.269 143.465 124.149 143.945C124.029 144.304 123.67 144.663 123.192 144.783L104.029 148.855C103.909 148.855 103.789 148.855 103.789 148.855ZM115.406 137.717L107.502 145.622L120.436 142.866L115.406 137.717Z" fill="#FF6C37"/>
<path d="M122.832 143.584L109.658 146.459C108.7 146.699 107.741 146.1 107.502 145.142C107.382 144.543 107.502 143.944 107.981 143.465L115.286 136.159L122.832 143.584Z" fill="#EEEEEE"/>
<path d="M109.418 147.657C107.741 147.657 106.424 146.34 106.424 144.663C106.424 143.825 106.783 143.106 107.262 142.508L114.568 135.202C115.047 134.722 115.766 134.722 116.245 135.202L123.79 142.747C124.149 143.106 124.269 143.465 124.149 143.945C124.029 144.304 123.67 144.663 123.192 144.783L110.017 147.657C109.778 147.657 109.538 147.657 109.418 147.657ZM115.406 137.717L108.939 144.184C108.7 144.424 108.7 144.663 108.819 144.903C108.939 145.142 109.179 145.262 109.538 145.262L120.556 142.866L115.406 137.717Z" fill="#FF6C37"/>
<path d="M196.248 72.4434C196.009 71.7254 195.17 71.3661 194.451 71.6057C193.733 71.8444 193.374 72.6829 193.614 73.4017C193.614 73.5215 193.733 73.6412 193.733 73.761C194.451 75.1985 194.213 76.9945 193.254 78.3121C192.775 78.9111 192.895 79.7496 193.374 80.2287C193.973 80.7071 194.811 80.5881 195.29 79.9892C197.087 77.7132 197.446 74.8391 196.248 72.4434Z" fill="#FF6C37"/>
</svg>

		</g>
		
		<g transform="translate(2100, 0)">
            
			<svg xmlns="http://www.w3.org/2000/svg" width="256" height="256" fill="none" viewBox="0 0 256 256" id="figma">
<style>
#figma {
    rect {fill: #242938}

    @media (prefers-color-scheme: light) {
        rect {fill: #F4F2ED}
    }
}
</style>
<rect width="256" height="256" fill="#242938" rx="60"/>
<g clip-path="url(#clip0_4_180)">
<path fill="#0ACF83" d="M94.3467 228C112.747 228 127.68 213.067 127.68 194.667V161.333H94.3467C75.9467 161.333 61.0133 176.267 61.0133 194.667C61.0133 213.067 75.9467 228 94.3467 228Z"/>
<path fill="#A259FF" d="M61.0133 128C61.0133 109.6 75.9467 94.6667 94.3467 94.6667H127.68V161.333H94.3467C75.9467 161.333 61.0133 146.4 61.0133 128Z"/>
<path fill="#F24E1E" d="M61.0133 61.3333C61.0133 42.9333 75.9467 28 94.3467 28H127.68V94.6667H94.3467C75.9467 94.6667 61.0133 79.7333 61.0133 61.3333Z"/>
<path fill="#FF7262" d="M127.68 28H161.013C179.413 28 194.347 42.9333 194.347 61.3333C194.347 79.7333 179.413 94.6667 161.013 94.6667H127.68V28Z"/>
<path fill="#1ABCFE" d="M194.347 128C194.347 146.4 179.413 161.333 161.013 161.333C142.613 161.333 127.68 146.4 127.68 128C127.68 109.6 142.613 94.6667 161.013 94.6667C179.413 94.6667 194.347 109.6 194.347 128Z"/>
</g>
<defs>
<clipPath id="clip0_4_180">
<rect width="133.36" height="200" fill="#fff" transform="translate(61 28)"/>
</clipPath>
</defs>
</svg>

		</g>
		
		<g transform="translate(2400, 0)">
            
			<svg width="256" height="256" viewBox="0 0 256 256" fill="none" xmlns="http://www.w3.org/2000/svg" id="markdown">
<style>
#markdown {
    rect {fill: #242938}
    path {fill: #F4F2ED}
    
    @media (prefers-color-scheme: light) {
        rect {fill: #F4F2ED}
        path {fill: #242938}
    }
}
</style>
<rect width="256" height="256" rx="60" fill="#242938" />
<path d="M212.572 188.269H45.0118C37.4221 188.269 31 181.848 31 174.257V82.0118C31 74.4221 37.4221 68 45.0118 68H211.988C219.578 68 226 74.4221 226 82.0118V174.257C226 181.847 220.161 188.269 212.572 188.269ZM45.0118 77.341C42.6764 77.341 40.341 79.6764 40.341 82.0118V174.257C40.341 177.176 42.6764 178.928 45.0118 178.928H211.988C214.907 178.928 216.659 176.593 216.659 174.257V82.0118C216.659 79.0929 214.324 77.341 211.988 77.341H45.0118ZM59.0236 160.246V96.0236H77.7063L96.389 119.378L115.072 96.0236H133.754V160.246H115.072V123.464L96.389 146.818L77.7063 123.464V160.246H59.0236ZM176.374 160.246L148.35 129.302H167.033V96.0236H185.716V128.719H204.398L176.374 160.246Z" fill="#F4F2ED"/>
</svg>

		</g>
		
		<g transform="translate(2700, 0)">
            
			<svg width="256" height="256" viewBox="0 0 256 256" fill="none" xmlns="http://www.w3.org/2000/svg" id="obsidian">
<style>
#obsidian {
    path.rect {fill: #242938}

    @media (prefers-color-scheme: light) {
        path.rect {fill: #F4F2ED}
    }
}
</style>
<g clip-path="url(#clip0_33_895)">
<path d="M196 0H60C26.8629 0 0 26.8629 0 60V196C0 229.137 26.8629 256 60 256H196C229.137 256 256 229.137 256 196V60C256 26.8629 229.137 0 196 0Z" fill="#242938" class="rect"/>
<g clip-path="url(#clip1_33_895)">
<mask id="mask0_33_895" style="mask-type:luminance" maskUnits="userSpaceOnUse" x="28" y="28" width="201" height="201">
<path d="M28.0781 28.0781H228.078V228.078H28.0781V28.0781Z" fill="white"/>
</mask>
<g mask="url(#mask0_33_895)">
<path d="M177.336 213.781C176.125 222.922 167.18 230.031 158.313 227.57C145.656 224.094 131.008 218.664 117.844 217.648L97.6486 216.086C94.3916 215.859 91.3323 214.441 89.0548 212.102L54.2892 176.281C52.4243 174.373 51.1772 171.948 50.7104 169.321C50.2436 166.695 50.5787 163.988 51.672 161.555C51.672 161.555 73.1564 114.289 73.9767 111.828C74.7579 109.367 77.7267 87.9219 79.4454 76.4375C79.9142 73.3516 81.3986 70.5781 83.7423 68.5078L124.875 31.4766C126.231 30.2583 127.823 29.3314 129.552 28.7533C131.281 28.1752 133.111 27.9581 134.927 28.1156C136.743 28.273 138.508 28.8016 140.111 29.6687C141.715 30.5357 143.124 31.7228 144.25 33.1563L178.781 77.0625C180.702 79.5758 181.745 82.6496 181.75 85.8125C181.75 94.1328 182.453 111.203 187.063 122.219C191.555 132.883 199.758 144.484 204.055 150.148C204.873 151.208 205.357 152.486 205.448 153.821C205.538 155.157 205.23 156.489 204.563 157.648C198.988 167.003 193.152 176.199 187.063 185.227C181.203 193.938 178.508 204.719 177.297 213.781H177.336Z" fill="#6C31E3"/>
<path d="M92.8047 214.836C108.977 182.023 108.508 158.508 101.633 141.789C95.3047 126.32 83.5469 116.594 74.2891 110.539C74.0547 111.438 73.7813 112.258 73.4297 113.078L51.6719 161.594C50.5736 164.024 50.2322 166.728 50.692 169.354C51.1518 171.981 52.3916 174.408 54.25 176.32L89.0547 212.141C90.1345 213.265 91.4039 214.191 92.8047 214.875V214.836Z" fill="url(#paint0_radial_33_895)"/>
<path d="M136.75 148.234C141.125 148.703 145.422 149.641 149.563 151.203C162.844 156.164 174.953 167.297 184.914 188.82C185.617 187.609 186.32 186.398 187.102 185.227C193.184 176.194 199.02 166.998 204.602 157.648C205.285 156.493 205.602 155.159 205.511 153.82C205.42 152.481 204.926 151.201 204.094 150.148C199.797 144.445 191.594 132.883 187.102 122.219C182.492 111.203 181.828 94.0938 181.789 85.8125C181.789 82.6484 180.774 79.5625 178.82 77.0625L144.25 33.1562C144.062 32.9284 143.867 32.707 143.664 32.4922C145.939 39.3036 146.21 46.6249 144.445 53.5859C142.772 59.2064 140.465 64.6187 137.57 69.7188L134.758 75.2656C130.249 83.8507 127.663 93.3147 127.18 103C126.711 114.484 129.055 128.937 136.75 148.234Z" fill="url(#paint1_radial_33_895)"/>
<path d="M136.75 148.234C129.055 128.937 126.672 114.484 127.18 102.961C127.663 93.2757 130.249 83.8117 134.758 75.2266C135.656 73.3516 136.633 71.5156 137.57 69.7188C140.344 64.2891 143.039 59.1719 144.445 53.5469C146.21 46.5859 145.939 39.2645 143.664 32.4531C141.294 29.8415 137.986 28.2762 134.463 28.1004C130.941 27.9247 127.493 29.1529 124.875 31.5156L83.7031 68.5469C81.4068 70.616 79.9015 73.4194 79.4453 76.4766L74.4453 109.68L74.25 110.578C83.5469 116.633 95.3438 126.359 101.633 141.828C102.933 144.961 103.952 148.203 104.68 151.516C115.617 148.859 126.438 147.219 136.75 148.273V148.234Z" fill="url(#paint2_radial_33_895)"/>
<path d="M158.313 227.609C167.18 230.031 176.125 222.922 177.336 213.781C178.344 205.074 180.911 196.619 184.914 188.82C174.914 167.336 162.844 156.164 149.602 151.203C135.539 145.969 120.227 147.688 104.68 151.477C108.156 167.258 106.086 187.922 92.8047 214.836C94.3672 215.539 95.9688 216.008 97.6875 216.125C97.6875 216.125 107.219 216.906 118.625 217.727C129.953 218.508 146.906 224.406 158.313 227.57V227.609Z" fill="url(#paint3_radial_33_895)"/>
<path fill-rule="evenodd" clip-rule="evenodd" d="M127.258 102.219C126.75 113.625 128.195 126.75 135.891 146.008L133.469 145.812C126.555 125.695 125.07 115.344 125.578 103.781C126.172 93.9407 128.89 84.3456 133.547 75.6562C134.484 73.7422 136.672 70.1484 137.649 68.3125C140.422 62.9609 142.297 60.1094 143.899 55.1875C146.125 48.3516 145.656 45.0703 145.383 41.8672C147.18 53.5469 140.422 63.7422 135.344 74.0547C130.674 82.7458 127.917 92.3353 127.258 102.18V102.219Z" fill="url(#paint4_radial_33_895)"/>
<path fill-rule="evenodd" clip-rule="evenodd" d="M103.898 142.609C104.836 144.719 105.695 146.437 106.242 149.055L104.172 149.484C103.352 146.438 102.687 144.25 101.516 141.672C94.5625 125.266 83.4297 116.828 74.2891 110.617C85.3047 116.555 96.6328 125.852 103.859 142.609H103.898Z" fill="url(#paint5_radial_33_895)"/>
<path fill-rule="evenodd" clip-rule="evenodd" d="M106.359 151.086C110.188 169.055 105.891 191.789 93.2344 213.937C103.82 191.984 108.938 170.93 104.68 151.437L106.359 151.086Z" fill="url(#paint6_radial_33_895)"/>
<path fill-rule="evenodd" clip-rule="evenodd" d="M150.07 149.484C170.812 157.258 178.82 174.328 184.797 188.547C177.375 173.664 167.141 157.18 149.328 151.047C135.734 146.437 124.289 146.984 104.68 151.437L104.25 149.484C125.031 144.758 135.891 144.211 150.07 149.484Z" fill="url(#paint7_radial_33_895)"/>
</g>
</g>
</g>
<defs>
<radialGradient id="paint0_radial_33_895" cx="0" cy="0" r="1" gradientUnits="userSpaceOnUse" gradientTransform="translate(91.0469 211.594) rotate(-104.693) scale(90.8621 60.5417)">
<stop stop-color="white" stop-opacity="0.4"/>
<stop offset="1" stop-opacity="0.1"/>
</radialGradient>
<radialGradient id="paint1_radial_33_895" cx="0" cy="0" r="1" gradientUnits="userSpaceOnUse" gradientTransform="translate(168.625 174.172) rotate(-82.4846) scale(149.33 110.326)">
<stop stop-color="white" stop-opacity="0.6"/>
<stop offset="1" stop-color="white" stop-opacity="0.1"/>
</radialGradient>
<radialGradient id="paint2_radial_33_895" cx="0" cy="0" r="1" gradientUnits="userSpaceOnUse" gradientTransform="translate(96.5156 147.922) rotate(-77.7949) scale(127.491 87.1129)">
<stop stop-color="white" stop-opacity="0.8"/>
<stop offset="1" stop-color="white" stop-opacity="0.4"/>
</radialGradient>
<radialGradient id="paint3_radial_33_895" cx="0" cy="0" r="1" gradientUnits="userSpaceOnUse" gradientTransform="translate(158.977 228.078) rotate(-120.496) scale(73.8942 84.9458)">
<stop stop-color="white" stop-opacity="0.3"/>
<stop offset="1" stop-opacity="0.3"/>
</radialGradient>
<radialGradient id="paint4_radial_33_895" cx="0" cy="0" r="1" gradientUnits="userSpaceOnUse" gradientTransform="translate(149.094 78.0781) rotate(102.236) scale(66.3511 44.7431)">
<stop stop-color="white" stop-opacity="0"/>
<stop offset="1" stop-color="white" stop-opacity="0.2"/>
</radialGradient>
<radialGradient id="paint5_radial_33_895" cx="0" cy="0" r="1" gradientUnits="userSpaceOnUse" gradientTransform="translate(71.3594 114.016) rotate(45.3237) scale(48.8906 104.136)">
<stop stop-color="white" stop-opacity="0.2"/>
<stop offset="1" stop-color="white" stop-opacity="0.4"/>
</radialGradient>
<radialGradient id="paint6_radial_33_895" cx="0" cy="0" r="1" gradientUnits="userSpaceOnUse" gradientTransform="translate(111.984 138.937) rotate(86.0397) scale(50.9028 108.095)">
<stop stop-color="white" stop-opacity="0.2"/>
<stop offset="1" stop-color="white" stop-opacity="0.3"/>
</radialGradient>
<radialGradient id="paint7_radial_33_895" cx="0" cy="0" r="1" gradientUnits="userSpaceOnUse" gradientTransform="translate(184.25 183.938) rotate(-152.289) scale(87.3639 274.845)">
<stop stop-color="white" stop-opacity="0.2"/>
<stop offset="0.5" stop-color="white" stop-opacity="0.2"/>
<stop offset="1" stop-color="white" stop-opacity="0.3"/>
</radialGradient>
<clipPath id="clip0_33_895">
<rect width="256" height="256" fill="white"/>
</clipPath>
<clipPath id="clip1_33_895">
<rect width="200" height="200" fill="white" transform="translate(28 28)"/>
</clipPath>
</defs>
</svg>

		</g>
		</svg>